<?xml version="1.0" encoding="UTF-8" standalone="no"?>
<svg xmlns="http://www.w3.org/2000/svg" width="1083mm" height="1042mm" viewBox="-483 -476 1083 1042">
	<rect x="-483" y="-476" width="1083" height="1042" style="fill: white" />
	<g>
		<path style="stroke: black; stroke-width: 1px; fill: none;" d="
			M -473,-391
			C -469,-424,-458,-416,-456,-389
			M -471,-400
			l 14,-1
			M -443,-412
			C -443,-405,-443,-397,-444,-390
			M -442,-400
			l 10,-1
			M -431,-409
			C -432,-403,-432,-397,-431,-390
			M -427,-392
			C -422,-419,-415,-416,-412,-391
			M -426,-400
			C -422,-400,-418,-401,-414,-401
			M -409,-410
			C -408,-404,-408,-398,-408,-391
			M -409,-409
			C -395,-421,-390,-396,-408,-403
			M -393,-410
			C -392,-405,-392,-399,-392,-393
			M -393,-411
			C -380,-419,-377,-400,-392,-402
			M -372,-391
			C -371,-402,-374,-400,-377,-408
			M -372,-400
			l 8,-10
			M -471,-380
			C -471,-366,-480,-357,-460,-361
			M -457,-379
			C -457,-372,-457,-366,-457,-360
			M -448,-379
			l 0,19
			M -454,-378
			C -449,-379,-444,-380,-440,-380
			M -434,-379
			l 0,16
			M -439,-378
			C -434,-379,-430,-380,-425,-380
			M -425,-377
			C -424,-367,-431,-356,-415,-360
			M -400,-380
			C -404,-379,-413,-382,-412,-376
			C -410,-360,-416,-356,-400,-360
			M -412,-368
			C -409,-369,-406,-370,-403,-370
			M -376,-380
			l 1,21
			M -383,-378
			C -379,-379,-374,-380,-369,-381
			M -366,-379
			C -365,-372,-366,-366,-366,-360
			M -366,-379
			C -353,-384,-349,-375,-363,-371
			C -358,-372,-356,-365,-353,-361
			M -338,-379
			C -341,-378,-351,-381,-350,-376
			C -348,-359,-355,-358,-336,-361
			M -350,-370
			C -347,-370,-344,-370,-341,-370
			M -320,-379
			C -338,-381,-331,-375,-333,-362
			C -332,-358,-323,-362,-320,-361
			M -332,-370
			l 7,0
			l -1,0
			M -474,-336
			C -473,-329,-473,-322,-474,-316
			M -473,-327
			l 11,-1
			M -461,-338
			C -461,-331,-461,-323,-460,-316
			M -453,-335
			C -460,-331,-456,-312,-447,-319
			C -442,-324,-444,-339,-453,-335
			M -439,-335
			C -439,-329,-441,-322,-439,-316
			C -437,-315,-433,-316,-430,-316
			M -426,-315
			C -412,-316,-408,-339,-427,-336
			C -426,-329,-426,-322,-427,-315
			M -409,-336
			C -409,-330,-409,-323,-409,-316
			M -405,-316
			l 0,-19
			C -400,-329,-397,-322,-394,-316
			l 1,-20
			M -381,-325
			C -379,-325,-377,-325,-375,-325
			C -373,-322,-375,-319,-377,-318
			C -393,-311,-390,-343,-375,-334
			M -359,-335
			C -366,-307,-340,-310,-348,-336
			M -342,-315
			C -341,-321,-343,-329,-342,-335
			C -326,-342,-322,-324,-342,-325
			M -319,-315
			C -315,-344,-305,-337,-303,-313
			M -317,-324
			l 12,-1
			M -473,-303
			C -473,-296,-473,-289,-473,-282
			M -473,-292
			C -469,-292,-465,-293,-461,-293
			M -460,-303
			C -461,-297,-462,-290,-461,-284
			M -456,-285
			C -453,-312,-445,-306,-441,-284
			M -455,-292
			C -451,-293,-447,-294,-443,-293
			l 0,-1
			M -438,-302
			l 0,17
			M -439,-301
			C -425,-311,-422,-288,-438,-293
			M -423,-303
			C -424,-296,-424,-289,-424,-282
			M -423,-294
			C -409,-292,-406,-308,-423,-303
			M -409,-302
			C -404,-296,-402,-292,-403,-284
			M -403,-294
			C -400,-298,-397,-301,-393,-305
			M -381,-304
			l -1,19
			l 10,-1
			M -367,-303
			C -367,-297,-368,-291,-368,-285
			M -363,-303
			C -359,-304,-355,-305,-351,-305
			M -357,-304
			C -358,-299,-358,-291,-358,-286
			M -351,-301
			C -346,-303,-341,-304,-336,-305
			M -344,-304
			C -345,-297,-345,-291,-346,-284
			M -333,-304
			C -334,-293,-343,-281,-324,-286
			M -308,-305
			C -312,-305,-317,-304,-321,-304
			C -321,-298,-320,-291,-321,-285
			C -316,-285,-312,-285,-307,-285
			M -321,-294
			C -318,-295,-315,-295,-312,-295
			M -473,-273
			C -472,-267,-470,-241,-464,-260
			C -463,-257,-462,-254,-461,-252
			C -457,-258,-455,-265,-454,-272
			M -448,-270
			C -450,-265,-451,-260,-449,-256
			C -442,-246,-435,-261,-439,-267
			C -440,-272,-446,-275,-448,-270
			M -433,-253
			C -432,-259,-432,-266,-432,-273
			C -420,-276,-416,-262,-431,-264
			C -425,-263,-421,-258,-420,-253
			M -413,-273
			C -413,-252,-421,-252,-403,-253
			M -399,-253
			C -381,-256,-376,-275,-399,-273
			C -399,-267,-399,-259,-399,-253
			M -423,-354
			l -1,10
			M -430,-242
			C -432,-211,-427,-177,-407,-151
			M -237,103
			C -222,67,-195,8,-221,-27
			C -222,-37,-221,-35,-228,-42
			C -230,-45,-228,-49,-230,-52
			C -232,-54,-235,-55,-235,-58
			C -235,-66,-234,-75,-244,-74
			C -252,-90,-255,-76,-266,-85
			C -270,-87,-273,-83,-277,-83
			C -282,-84,-287,-84,-292,-81
			C -295,-80,-297,-82,-300,-83
			C -303,-83,-306,-80,-310,-80
			C -322,-84,-327,-74,-337,-81
			C -342,-80,-342,-74,-350,-78
			C -356,-80,-362,-75,-368,-75
			C -372,-75,-375,-77,-379,-76
			C -385,-72,-391,-76,-397,-72
			C -403,-70,-409,-69,-408,-61
			C -415,-50,-409,-53,-411,-46
			C -415,-40,-411,-32,-416,-26
			C -419,-19,-415,-11,-420,-4
			C -422,8,-416,4,-422,18
			C -422,21,-420,23,-419,25
			C -418,32,-424,31,-417,39
			C -416,45,-420,46,-415,52
			C -414,55,-416,57,-415,60
			C -415,62,-414,63,-412,64
			C -411,65,-411,68,-410,69
			C -407,68,-406,71,-404,72
			C -402,72,-400,72,-398,73
			C -393,79,-395,75,-389,77
			C -387,83,-386,79,-381,80
			C -380,81,-380,81,-379,82
			C -377,84,-373,81,-372,83
			C -371,89,-367,86,-363,87
			C -359,89,-362,95,-357,95
			C -356,96,-355,95,-354,96
			C -353,100,-353,104,-350,106
			C -348,107,-347,109,-345,108
			C -344,107,-340,108,-341,106
			C -346,105,-340,100,-342,98
			C -343,96,-346,93,-342,91
			C -337,88,-343,80,-340,76
			C -335,75,-339,64,-332,68
			C -328,56,-328,69,-321,66
			C -310,59,-313,68,-306,64
			C -303,62,-301,64,-299,66
			C -297,66,-294,63,-292,65
			C -289,69,-282,62,-280,68
			C -275,73,-268,61,-262,68
			C -258,68,-255,63,-252,69
			C -245,63,-246,69,-247,75
			C -247,78,-241,75,-245,83
			C -248,88,-239,85,-242,93
			C -242,97,-236,94,-238,100
			C -238,101,-238,103,-237,103
			M -227,80
			C -222,84,-229,88,-227,92
			C -226,97,-229,98,-230,102
			C -229,111,-232,108,-236,115
			C -239,122,-245,124,-247,133
			C -249,136,-252,137,-253,141
			C -253,143,-255,143,-257,144
			C -259,145,-259,148,-262,148
			C -269,150,-264,153,-275,155
			C -279,159,-284,157,-289,160
			C -290,161,-292,160,-293,160
			C -295,160,-296,158,-298,158
			C -307,165,-305,151,-313,158
			C -318,163,-320,153,-325,153
			C -335,157,-333,147,-338,143
			C -341,143,-346,145,-346,140
			C -348,128,-351,135,-356,132
			C -357,130,-356,125,-359,124
			C -361,124,-363,126,-365,125
			C -367,123,-365,114,-371,114
			C -372,115,-374,116,-375,114
			C -376,112,-375,105,-379,106
			C -388,108,-384,105,-388,100
			C -389,99,-390,99,-390,100
			C -397,102,-393,93,-398,93
			C -407,90,-408,81,-417,79
			C -419,78,-417,74,-419,73
			C -425,70,-430,72,-431,64
			C -436,60,-441,56,-444,49
			C -445,47,-448,47,-450,46
			C -458,42,-450,34,-463,30
			C -471,27,-466,17,-471,12
			C -483,6,-472,-7,-477,-16
			C -482,-25,-471,-29,-475,-38
			C -480,-50,-467,-53,-469,-63
			C -470,-65,-470,-68,-469,-70
			C -465,-74,-458,-76,-460,-83
			C -460,-88,-455,-90,-453,-94
			C -451,-97,-449,-100,-447,-102
			C -445,-105,-446,-109,-443,-111
			C -436,-113,-435,-122,-426,-124
			C -420,-135,-420,-128,-414,-133
			C -413,-138,-412,-137,-407,-136
			C -402,-137,-403,-143,-395,-140
			C -389,-142,-384,-144,-378,-143
			C -376,-143,-374,-145,-372,-147
			C -367,-147,-365,-142,-360,-148
			C -354,-146,-353,-145,-348,-149
			C -336,-149,-324,-153,-312,-153
			C -310,-153,-307,-155,-305,-155
			C -300,-155,-295,-155,-290,-157
			C -285,-154,-281,-154,-276,-154
			C -270,-147,-271,-150,-263,-149
			C -256,-143,-246,-142,-240,-134
			C -238,-133,-235,-135,-233,-133
			C -230,-129,-226,-126,-221,-125
			C -220,-120,-217,-116,-212,-114
			C -214,-105,-206,-105,-205,-99
			C -209,-91,-197,-93,-201,-81
			C -200,-76,-196,-71,-199,-65
			C -194,-61,-197,-56,-195,-51
			C -194,-49,-195,-48,-196,-46
			C -197,-39,-195,-34,-197,-27
			C -191,-13,-200,-17,-195,-5
			C -195,1,-195,8,-196,14
			C -197,19,-194,26,-199,29
			C -200,33,-198,38,-200,42
			C -203,48,-206,59,-214,59
			C -220,59,-215,67,-222,67
			l 0,0
			M -325,154
			C -347,211,-373,268,-390,327
			C -395,325,-395,335,-393,331
			M -435,371
			C -415,351,-393,330,-373,310
			C -372,311,-372,313,-370,314
			C -390,335,-411,356,-431,377
			C -432,376,-436,373,-435,371
			M -437,375
			C -443,374,-446,383,-445,387
			C -442,394,-439,401,-442,408
			C -440,402,-433,398,-433,391
			C -433,387,-434,383,-432,379
			M -438,379
			C -443,384,-438,392,-439,398
			M -382,561
			C -356,480,-341,396,-312,317
			C -272,397,-245,482,-213,566
			M -312,318
			C -310,264,-309,210,-310,157
			M -289,160
			C -282,183,-274,206,-267,229
			C -266,233,-262,233,-259,234
			M -244,141
			C -241,200,-239,209,-274,259
			C -312,353,-191,386,-134,275
			C -35,135,-232,42,-244,141
			M -220,136
			C -213,128,-206,121,-197,115
			C -197,116,-197,117,-198,118
			C -204,126,-211,135,-217,143
			C -208,136,-200,125,-190,121
			C -197,129,-204,138,-210,147
			l 25,-22
			C -190,133,-198,138,-202,147
			C -196,143,-191,139,-186,134
			M -175,150
			C -178,153,-181,157,-184,161
			C -177,156,-170,151,-162,146
			C -169,156,-182,163,-188,174
			C -177,164,-166,154,-154,147
			C -163,156,-172,166,-179,177
			C -172,170,-165,163,-157,157
			C -160,163,-168,168,-168,174
			C -165,172,-163,170,-160,167
			M -166,208
			C -161,203,-155,199,-149,197
			C -154,203,-161,210,-167,216
			l 33,-20
			C -149,208,-163,220,-177,234
			C -164,223,-151,214,-137,205
			l -26,22
			l 18,-9
			C -147,220,-149,223,-151,224
			C -149,223,-146,221,-144,220
			M -186,278
			C -178,271,-170,265,-161,260
			C -166,272,-180,279,-189,289
			C -179,281,-169,274,-159,267
			C -166,278,-180,284,-186,295
			C -179,289,-170,283,-162,278
			l -16,18
			l 13,-8
			M -234,301
			C -239,304,-244,309,-248,314
			C -240,309,-232,304,-224,300
			l -25,22
			l 32,-19
			C -227,310,-237,317,-246,326
			C -237,321,-229,316,-220,312
			C -226,316,-233,321,-237,328
			C -232,325,-227,323,-222,320
			M -280,317
			C -278,339,-277,361,-277,384
			M -280,403
			C -277,451,-278,500,-280,548
			C -263,547,-246,547,-229,549
			M -212,547
			C 57,552,326,555,595,548
			C 584,208,600,-134,592,-474
			C 300,-470,8,-471,-284,-476
			C -270,-375,-284,-271,-285,-169
			M -181,-15
			C -180,-8,-180,-1,-180,6
			C -174,5,-169,5,-164,5
			C -166,-2,-166,-9,-165,-16
			C -170,-15,-176,-14,-181,-15
			M -179,19
			C -177,19,-176,19,-174,20
			l 2,-13
			C -172,8,-176,7,-177,7
			C -178,7,-178,17,-179,19
			M -171,7
			C -169,11,-168,15,-168,20
			C -166,19,-164,19,-162,19
			C -168,6,-162,6,-171,7
			M -158,-4
			C -157,-6,-156,-7,-155,-8
			C -157,-10,-160,-12,-163,-14
			C -167,-10,-161,-8,-158,-4
			M -189,-4
			C -190,-3,-189,-3,-189,-3
			C -188,-2,-187,-1,-187,0
			C -185,-3,-182,-5,-180,-8
			C -180,-8,-181,-10,-181,-11
			C -183,-12,-188,-5,-189,-4
			M -164,-17
			C -164,-22,-164,-26,-163,-30
			l -15,-2
			C -178,-27,-179,-23,-179,-18
			C -176,-18,-168,-18,-164,-17
			M -172,-28
			C -172,-28,-173,-28,-174,-28
			C -173,-27,-174,-25,-174,-24
			C -172,-25,-171,-25,-169,-24
			C -169,-27,-168,-28,-172,-28
			M -163,-28
			C -168,-28,-166,-28,-167,-24
			C -166,-24,-165,-24,-164,-24
			M -165,-21
			C -167,-22,-170,-22,-173,-22
			C -173,-21,-173,-20,-173,-19
			C -170,-19,-167,-19,-164,-18
			M -171,-22
			C -171,-21,-171,-20,-171,-19
			M -168,-22
			C -169,-21,-169,-20,-169,-19
			M -166,-21
			C -166,-21,-166,-20,-166,-19
			M -181,-36
			l -1,-8
			C -176,-48,-175,-41,-182,-40
			M -174,-45
			C -176,-43,-176,-39,-174,-38
			C -169,-37,-169,-48,-174,-45
			M -169,-43
			C -169,-40,-165,-38,-164,-41
			C -161,-45,-167,-49,-169,-43
			M -161,-40
			C -161,-42,-162,-44,-162,-46
			C -158,-50,-155,-44,-161,-43
			C -158,-43,-157,-42,-156,-40
			M -154,-46
			C -152,-47,-149,-47,-147,-48
			M -150,-47
			C -150,-45,-150,-43,-150,-41
			M -147,-46
			l 0,5
			M -147,-45
			C -146,-45,-145,-45,-144,-45
			M -143,-49
			C -144,-46,-144,-44,-143,-41
			M -141,-49
			C -141,-46,-141,-44,-141,-42
			M -139,-42
			C -139,-44,-139,-46,-139,-48
			l 4,6
			C -135,-45,-135,-47,-135,-49
			M -131,-46
			C -130,-47,-129,-47,-129,-47
			C -128,-42,-134,-43,-133,-47
			C -133,-49,-131,-51,-129,-49
			M -125,-51
			C -126,-49,-125,-47,-125,-46
			M -125,-43
			C -125,-43,-126,-43,-126,-43
			C -126,-43,-125,-43,-125,-43
			M -153,-35
			C -153,-33,-153,-31,-152,-29
			M -156,-34
			C -154,-35,-153,-35,-152,-36
			M -155,-28
			l 5,-1
			M -149,-37
			C -149,-37,-149,-36,-150,-36
			M -148,-36
			C -147,-33,-150,-30,-145,-31
			M -143,-37
			C -143,-35,-143,-33,-143,-31
			C -142,-31,-141,-32,-139,-32
			M -137,-38
			C -137,-36,-137,-34,-137,-32
			M -134,-38
			C -134,-36,-134,-34,-134,-32
			M -137,-35
			C -136,-35,-135,-35,-134,-35
			M -129,-38
			C -130,-37,-131,-37,-133,-37
			l 1,6
			C -131,-32,-130,-32,-128,-32
			M -132,-35
			l 3,-1
			M -126,-38
			l 0,6
			C -125,-32,-124,-33,-123,-33
			M -121,-32
			C -121,-34,-122,-36,-122,-38
			C -118,-39,-117,-35,-121,-35
			M -144,-29
			C -145,-27,-144,-24,-142,-23
			M -165,-38
			C -165,-36,-165,-34,-166,-33
			M -157,17
			C -153,17,-149,16,-145,16
			C -146,11,-147,6,-149,0
			C -145,2,-141,2,-137,3
			C -137,8,-137,13,-138,18
			M -149,1
			C -150,-5,-144,-10,-139,-12
			M -127,-26
			C -137,-31,-144,-14,-135,-9
			C -125,-3,-116,-22,-127,-26
			M -139,-13
			C -138,-9,-137,-5,-135,-2
			C -133,2,-129,3,-128,7
			M -139,-12
			C -135,-7,-131,1,-124,3
			M -122,3
			C -129,4,-127,9,-129,10
			C -126,14,-117,9,-119,4
			C -123,4,-127,7,-129,11
			M -122,4
			C -122,2,-123,0,-120,-1
			C -120,0,-120,2,-120,4
			M -120,2
			C -120,1,-118,1,-118,1
			C -118,0,-118,0,-117,0
			C -115,0,-115,1,-116,3
			C -117,3,-119,3,-119,4
			M -117,2
			C -117,2,-117,2,-117,2
			M -128,7
			C -130,7,-131,6,-132,8
			C -132,9,-130,9,-129,9
			C -130,10,-132,11,-132,12
			C -131,12,-130,11,-129,11
			M -125,14
			C -126,14,-127,14,-127,14
			C -125,14,-123,14,-120,15
			C -124,15,-128,16,-132,16
			C -129,17,-125,16,-122,16
			C -123,16,-125,17,-126,17
			M -18,1
			C -19,-1,-22,-1,-24,-2
			M -14,0
			C -15,-3,-17,-6,-20,-7
			M -9,-1
			C -10,-5,-9,-9,-7,-12
			M -6,-1
			C -5,-4,-4,-6,-3,-8
			M -24,-53
			C -25,-55,-27,-55,-29,-56
			M -20,-54
			C -21,-57,-23,-59,-25,-61
			M -17,-54
			C -17,-58,-17,-63,-14,-66
			M -14,-54
			C -13,-57,-11,-59,-8,-59
			M -33,-86
			C -34,-93,-35,-100,-35,-107
			C -29,-107,-22,-107,-16,-108
			C -21,-113,-25,-119,-29,-125
			C -25,-124,-22,-124,-18,-124
			C -22,-128,-27,-133,-31,-138
			C -27,-137,-24,-136,-21,-136
			C -25,-140,-28,-144,-30,-149
			C -28,-148,-25,-147,-22,-147
			C -26,-151,-30,-156,-33,-161
			C -31,-161,-28,-161,-26,-161
			C -30,-165,-34,-170,-37,-176
			C -38,-169,-41,-163,-46,-158
			C -44,-159,-41,-159,-38,-160
			l -11,15
			l 8,-2
			C -44,-142,-48,-137,-52,-132
			C -49,-133,-46,-133,-44,-134
			C -48,-129,-52,-124,-57,-119
			C -53,-119,-49,-120,-44,-120
			C -49,-115,-54,-110,-59,-105
			C -53,-105,-47,-105,-41,-106
			C -42,-103,-43,-90,-43,-87
			C -40,-86,-36,-87,-33,-86
			M 39,-69
			C 43,-69,47,-70,52,-70
			C 50,-76,49,-83,48,-89
			C 54,-88,60,-87,66,-87
			C 61,-91,58,-96,56,-102
			C 59,-101,62,-100,65,-99
			C 60,-105,56,-112,53,-119
			C 55,-119,58,-118,61,-118
			C 57,-125,53,-131,50,-138
			C 52,-137,54,-136,57,-135
			C 51,-141,47,-148,45,-156
			C 45,-147,41,-139,37,-131
			C 39,-132,42,-133,44,-134
			C 41,-128,38,-123,34,-117
			l 7,-1
			C 39,-112,35,-107,30,-103
			l 8,-1
			C 34,-97,30,-92,25,-87
			C 43,-86,43,-95,39,-69
			M 117,-97
			l 4,-19
			C 124,-110,126,-103,128,-97
			M 121,-114
			C 121,-119,121,-123,120,-127
			M 113,-136
			C 112,-128,124,-124,128,-131
			C 133,-144,116,-152,113,-136
			M 125,-143
			C 125,-132,113,-142,118,-128
			M 112,-138
			C 108,-141,105,-136,106,-132
			C 107,-128,112,-125,112,-120
			C 112,-125,112,-129,113,-134
			M 120,-126
			C 117,-122,115,-117,114,-112
			M 121,-126
			C 129,-126,131,-126,136,-133
			M 136,-125
			C 136,-125,135,-136,137,-134
			C 135,-127,136,-147,136,-149
			M 137,-148
			C 112,-166,156,-174,134,-147
			l 0,-1
			M 189,-87
			C 189,-88,188,-89,187,-90
			M 192,-87
			C 192,-90,191,-92,189,-94
			M 195,-87
			C 195,-90,194,-95,197,-97
			M 198,-87
			C 198,-89,199,-91,202,-92
			M 185,-67
			C 177,-65,175,-57,168,-53
			C 183,-44,182,-49,198,-51
			C 202,-52,195,-59,194,-61
			C 192,-63,188,-64,185,-66
			C 182,-60,180,-54,180,-46
			M 159,-91
			C 163,-95,166,-90,167,-87
			C 163,-86,151,-84,159,-91
			M 233,-85
			C 235,-91,243,-93,245,-85
			C 241,-85,236,-85,233,-85
			M 109,-21
			C 109,-22,108,-24,107,-24
			M 114,-22
			C 114,-25,113,-28,112,-31
			M 118,-20
			C 118,-24,119,-28,122,-31
			M 122,-19
			C 123,-21,124,-24,126,-24
			M 45,-23
			C 42,-21,41,-16,38,-13
			C 41,-12,42,-8,45,-7
			C 47,-8,49,-7,51,-6
			C 54,-5,57,-8,59,-6
			C 62,-8,64,-10,66,-11
			C 66,-19,52,-34,45,-23
			M 43,-21
			C 50,-16,53,-20,54,-8
			M 51,-18
			C 51,-21,56,-22,57,-26
			M 229,42
			C 231,42,233,41,236,41
			M 240,39
			C 242,39,244,38,245,38
			M 249,37
			C 251,36,252,36,254,36
			M 257,32
			C 258,31,259,30,260,28
			M 263,25
			C 264,23,265,22,266,21
			M 269,18
			C 269,17,270,16,271,15
			M 259,37
			l 6,1
			M 269,40
			C 271,41,272,41,274,42
			M 278,42
			l 5,1
			M 287,44
			C 289,45,290,45,291,45
			M 211,10
			C 213,9,216,8,218,8
			M 223,6
			C 224,5,226,5,228,5
			M 233,3
			C 234,3,236,3,237,3
			M 243,1
			C 244,0,246,0,248,0
			M 253,-1
			l 6,-2
			M 245,-16
			l 4,2
			M 253,-12
			l 4,3
			M 260,-8
			l 4,3
			M 269,-2
			C 270,-1,271,0,272,1
			M 275,3
			C 276,4,277,4,278,5
			M 321,35
			C 316,25,301,28,295,36
			C 308,46,314,38,326,34
			C 334,35,333,42,322,39
			M 319,38
			C 322,39,324,42,326,45
			C 321,47,319,42,316,39
			C 323,46,298,48,304,41
			C 302,43,302,45,301,47
			C 300,47,298,47,296,47
			C 296,44,297,41,299,39
			C 295,42,289,40,286,36
			C 289,38,293,37,296,36
			M 325,36
			C 325,36,326,36,326,36
			M 372,44
			C 396,46,375,25,389,17
			C 382,16,371,20,373,29
			C 374,35,376,39,372,44
			C 373,37,373,25,363,28
			l 1,-1
			l -1,0
			C 364,26,364,25,362,24
			C 364,24,363,22,362,23
			C 362,21,362,20,362,19
			C 361,19,359,20,359,21
			C 351,22,351,32,360,30
			C 360,31,361,31,362,32
			C 361,34,359,33,358,34
			C 359,36,362,35,364,35
			C 359,36,361,42,365,42
			C 365,44,363,43,362,44
			C 362,47,368,45,370,45
			M 358,25
			C 358,25,357,26,357,25
			M 355,22
			C 355,18,355,19,358,21
			M 503,3
			l 4,-19
			C 510,-9,511,-3,513,3
			M 507,-14
			C 507,-18,508,-22,509,-25
			M 509,-26
			C 505,-22,501,-18,499,-13
			M 510,-26
			C 511,-21,513,-17,514,-12
			M 506,-36
			C 511,-17,530,-30,520,-44
			C 514,-48,506,-43,506,-36
			M 521,-40
			C 515,-31,505,-46,507,-27
			M 506,-37
			C 506,-34,505,-31,504,-28
			M 508,-31
			C 508,-29,508,-27,509,-26
			M 520,-42
			C 517,-39,512,-41,508,-39
			M 520,-43
			C 515,-44,509,-42,507,-37
			M 284,-40
			l -2,-2
			M 288,-42
			C 287,-44,285,-47,283,-49
			M 293,-42
			C 292,-45,293,-49,295,-51
			M 297,-42
			C 297,-44,299,-46,301,-47
			M 356,-43
			C 348,-42,349,-44,353,-49
			C 356,-52,360,-46,362,-44
			l -7,1
			M 448,-43
			l -2,-2
			M 450,-44
			l -2,-6
			M 453,-44
			l 3,-6
			M 458,-43
			C 458,-45,460,-47,463,-48
			M 590,-21
			C 552,-11,520,13,482,23
			C 474,33,462,28,451,27
			l 5,7
			C 435,41,416,53,394,59
			C 358,68,320,65,283,66
			C 263,66,243,65,224,64
			C 203,67,182,66,162,62
			l 3,-6
			C 161,57,157,58,154,60
			C 137,53,120,47,102,42
			C 89,38,94,47,85,35
			C 72,38,60,43,46,39
			C 38,37,30,39,23,35
			C 10,30,-4,33,-18,36
			C -32,39,-46,36,-60,42
			l 2,-9
			C -61,35,-63,38,-65,41
			C -86,47,-108,41,-130,43
			C -140,43,-150,45,-159,45
			C -171,45,-184,41,-195,46
			M -60,41
			C -60,44,-60,48,-60,51
			C -62,48,-62,44,-66,43
			M 82,35
			C 85,48,86,61,88,74
			C 83,91,85,91,89,108
			C 93,123,81,119,85,140
			M 85,54
			C 85,49,86,45,88,41
			M 154,60
			C 159,66,161,72,162,80
			M 162,60
			C 161,67,161,73,163,79
			M 224,64
			C 223,76,226,88,226,100
			M 418,63
			C 418,68,421,75,416,80
			C 414,92,415,105,410,116
			M 382,101
			C 378,105,381,109,383,113
			C 384,121,379,130,382,138
			M 591,88
			C 589,89,587,91,584,91
			C 584,91,583,91,583,91
			C 576,97,576,94,570,95
			C 565,99,547,104,553,112
			C 548,111,544,115,539,115
			C 535,114,527,110,526,116
			C 528,124,517,121,513,124
			C 508,120,509,115,500,116
			C 490,114,483,121,480,131
			C 473,146,466,130,461,144
			C 457,151,445,148,438,153
			C 434,156,430,157,425,156
			C 422,157,419,158,417,156
			C 417,150,415,143,408,144
			l 0,4
			C 402,148,398,144,394,144
			C 389,143,380,146,378,139
			C 370,147,363,147,363,160
			C 348,160,352,161,340,153
			C 329,154,317,161,306,153
			C 290,144,289,154,276,158
			C 265,162,245,160,242,174
			C 242,182,230,179,224,181
			C 217,189,205,175,197,180
			C 192,182,188,194,181,189
			C 173,197,144,180,135,174
			C 132,178,125,173,122,177
			C 120,181,120,185,114,183
			C 107,180,101,181,102,172
			C 101,169,96,170,93,169
			C 90,167,90,160,85,162
			l 0,-9
			C 85,156,84,159,84,162
			l -21,-1
			C 59,163,57,161,55,157
			C 50,160,46,160,42,157
			C 36,156,32,163,25,161
			C 17,164,9,143,-9,160
			C -11,160,-14,159,-16,162
			C -22,166,-27,148,-34,159
			C -37,157,-41,158,-43,155
			C -46,152,-44,146,-48,145
			C -45,154,-59,169,-67,159
			C -71,160,-71,166,-74,170
			C -78,174,-84,175,-88,178
			C -92,184,-98,177,-103,180
			C -104,180,-105,180,-104,179
			C -106,180,-106,180,-108,180
			M 341,152
			C 349,147,348,131,353,133
			C 358,132,357,135,361,137
			C 363,137,363,137,363,138
			C 366,138,370,145,367,145
			M 353,132
			C 360,140,362,150,362,161
			M 406,147
			C 405,159,405,160,417,157
			M 470,61
			C 472,70,469,77,475,84
			C 482,104,483,118,476,138
			M 464,137
			C 466,130,468,123,467,117
			C 466,116,466,115,466,113
			C 466,110,465,107,465,103
			M 529,14
			C 536,37,525,45,523,63
			C 522,71,512,78,516,87
			M 555,-8
			C 550,2,554,14,550,24
			M 495,19
			C 492,28,493,38,494,48
			M 456,33
			l -1,20
			C 456,42,466,36,471,29
			M 461,29
			C 460,34,460,38,460,43
			M 292,94
			C 290,110,291,106,294,119
			C 296,129,287,140,292,147
			M -28,156
			C -37,132,-36,105,-37,79
			M -18,163
			C -21,156,-23,148,-25,140
			M -9,160
			C -8,158,-9,156,-10,154
			C -10,152,-9,150,-9,148
			C -8,144,-11,139,-11,135
			C -8,126,-13,117,-14,108
			M -10,138
			C -9,144,-5,149,-3,155
			M -48,145
			C -49,136,-53,128,-53,119
			C -53,116,-52,113,-53,110
			C -53,106,-55,103,-55,99
			M -90,84
			C -93,103,-81,109,-80,124
			C -74,133,-69,143,-69,154
			C -69,156,-67,159,-69,160
			M -130,68
			C -134,78,-125,89,-125,99
			C -126,109,-119,118,-116,128
			C -116,129,-116,130,-116,131
			C -120,139,-109,143,-109,151
			M -172,58
			C -176,78,-169,69,-167,80
			C -165,87,-167,98,-159,103
			M -98,44
			C -98,52,-97,65,-95,71
			M -144,44
			C -143,50,-142,56,-141,62
			M -15,34
			C -15,40,-17,47,-14,53
			C -12,59,-14,65,-12,72
			M 17,57
			C 12,78,23,100,20,122
			C 20,126,19,131,22,135
			M 51,41
			C 53,53,51,64,51,76
			C 51,78,51,80,53,80
			M 131,69
			C 128,75,126,82,128,89
			C 127,103,125,118,129,132
			M 102,172
			C 100,159,99,147,110,139
			C 106,154,118,155,121,166
			C 126,167,122,173,122,177
			C 123,177,123,176,123,176
			M 117,182
			C 116,180,114,176,112,174
			C 108,173,107,168,105,165
			C 101,157,102,146,110,140
			M 113,115
			C 112,118,112,121,114,123
			C 114,128,114,132,116,136
			M 181,188
			C 184,183,178,182,181,177
			C 182,176,183,175,183,173
			C 180,170,182,167,182,162
			C 183,159,180,156,182,153
			M 199,177
			C 196,169,192,162,189,154
			C 192,142,187,129,186,117
			M 240,178
			C 241,174,238,170,241,165
			C 241,162,239,159,239,156
			C 239,153,240,151,240,149
			C 238,146,239,142,239,139
			C 238,134,230,131,233,126
			M 250,86
			C 251,97,252,108,254,119
			C 255,124,251,129,253,133
			M 333,85
			C 331,91,332,97,331,103
			C 330,105,329,107,329,108
			C 330,110,331,113,330,115
			M 320,158
			C 321,155,322,152,321,149
			M 270,153
			l -1,7
			M 442,151
			C 442,154,446,156,449,155
			C 450,153,448,151,449,149
			M 515,124
			C 517,128,523,126,521,122
			M 156,15
			l -3,-6
			M 162,13
			l -4,-8
			M 166,14
			C 166,10,166,7,167,3
			M 172,14
			C 172,12,174,9,176,8
			M 200,179
			C 197,182,196,186,195,190
			C 191,199,186,207,182,216
			C 186,218,190,215,193,213
			C 199,208,206,207,212,203
			C 219,200,227,203,235,201
			C 242,198,249,194,257,193
			C 262,191,261,182,265,179
			C 273,176,272,167,268,160
			M 291,150
			C 293,155,295,160,295,166
			C 300,163,300,156,307,155
			M 271,168
			C 274,173,281,174,286,176
			M 263,181
			C 263,185,267,187,271,187
			C 274,187,276,193,278,190
			M 259,191
			C 256,196,266,200,270,202
			C 271,201,272,201,273,203
			M 329,157
			C 329,155,331,157,330,158
			C 326,171,315,179,306,189
			C 313,189,311,188,314,195
			C 337,194,335,183,352,179
			C 369,174,408,177,412,156
			M 542,115
			C 523,132,504,147,488,166
			C 468,174,452,188,434,200
			C 412,214,385,215,361,225
			C 351,229,342,234,333,239
			C 317,247,299,248,283,255
			C 269,269,264,270,245,272
			C 240,274,236,279,231,281
			C 224,284,215,279,209,283
			C 196,294,200,320,176,300
			M 188,307
			C 191,317,183,328,173,322
			C 166,322,157,317,158,309
			M 182,324
			C 181,324,181,324,182,324
			C 187,329,182,339,185,346
			C 195,357,189,367,194,379
			C 198,385,204,389,205,396
			C 211,406,227,406,233,416
			M -105,192
			C -100,208,-77,198,-72,208
			C -66,207,-62,212,-60,217
			C -54,225,-35,223,-35,236
			C -36,254,-21,227,-11,276
			C -7,278,-5,282,-6,286
			C -8,297,-7,309,-6,320
			C -6,333,-3,347,-4,361
			C -6,367,-8,373,-9,380
			C -13,397,-29,405,-43,412
			C -28,411,-12,405,3,406
			C 6,406,10,403,13,404
			C 22,411,23,409,34,405
			C 40,404,46,409,53,411
			C 63,415,75,411,82,402
			C 92,406,101,415,112,416
			C 117,415,120,410,124,408
			C 136,403,150,422,161,410
			C 166,409,172,415,177,413
			C 184,405,194,412,203,411
			C 203,410,203,408,204,407
			C 214,412,224,415,235,416
			M 32,162
			C 29,174,38,182,33,197
			C 32,205,37,212,40,220
			C 50,251,26,282,1,297
			M 33,203
			C 17,194,32,239,19,253
			C 6,267,19,263,-3,281
			M 24,211
			C 22,204,17,194,8,194
			C 6,194,4,198,6,200
			C 6,180,-13,185,-23,175
			C -25,163,-41,168,-41,155
			M -31,243
			l 1,1
			C -27,243,-21,242,-21,237
			M -36,232
			C -35,229,-34,227,-32,224
			M -16,257
			C -12,256,-8,254,-7,251
			M -13,269
			C -14,265,-9,261,-7,259
			M 1,252
			C 3,250,4,248,5,245
			M -44,160
			C -42,167,-36,170,-29,172
			C -25,175,-24,183,-19,185
			C -13,187,-4,185,-2,193
			C 0,196,-1,201,3,203
			M -99,192
			C -96,198,-76,198,-69,201
			C -66,201,-64,202,-62,205
			C -57,214,-47,220,-38,226
			M -83,188
			C -80,189,-76,189,-73,188
			C -65,192,-57,198,-52,205
			C -51,207,-50,208,-47,208
			C -44,209,-43,214,-40,214
			M -59,169
			C -52,184,-50,170,-41,188
			M -14,212
			C -9,215,-5,219,-5,225
			C -3,229,3,230,4,235
			M -10,386
			C 7,361,-5,330,0,303
			M -7,315
			C -7,324,-7,333,-9,342
			C -9,349,-3,355,-4,361
			M -1,393
			C 2,380,10,366,6,352
			C -1,337,0,316,10,302
			M 7,396
			C 9,387,9,377,12,369
			C 15,364,16,360,11,356
			C 8,352,5,347,5,342
			M 10,341
			C 12,344,14,346,15,349
			C 23,315,1,313,10,341
			M 16,355
			C 25,357,22,344,23,338
			M 56,237
			C 59,264,22,281,28,308
			C 30,326,33,346,29,363
			C 27,370,22,376,21,383
			C 20,388,20,394,17,399
			M 8,403
			C 10,400,12,396,14,393
			C 13,397,14,402,16,406
			M 77,406
			C 81,400,83,394,84,387
			C 83,393,83,399,86,404
			M 72,167
			C 66,188,71,208,79,227
			C 79,235,75,242,79,250
			C 79,254,74,257,75,261
			M 76,280
			C 71,290,79,301,74,310
			C 70,320,65,323,67,335
			M 49,301
			C 41,316,45,330,48,345
			C 48,354,42,362,41,371
			C 43,383,40,395,33,405
			M 38,396
			C 37,400,38,405,42,408
			M 121,409
			C 128,400,123,388,125,377
			C 126,374,127,371,127,368
			C 121,359,128,349,125,340
			C 116,329,118,315,116,302
			M 94,302
			C 85,312,92,327,89,339
			C 80,348,87,359,84,370
			C 83,372,82,377,86,377
			M 124,257
			C 120,270,123,285,132,296
			C 136,302,134,310,136,316
			M 144,320
			C 151,325,150,334,147,341
			C 145,353,154,348,149,361
			M 142,371
			C 144,377,137,383,140,389
			C 143,392,144,395,143,399
			M 125,395
			C 126,399,128,407,132,406
			M 158,413
			C 168,398,157,379,161,361
			C 161,362,161,362,161,363
			M 163,399
			C 162,404,164,409,169,412
			M 203,410
			C 205,400,200,404,197,396
			C 195,384,182,381,185,366
			C 190,352,175,345,179,329
			M 172,331
			C 169,339,178,348,176,357
			M 179,373
			C 179,381,182,388,187,394
			M -3,285
			C -8,297,-3,310,-5,323
			M -10,388
			C -12,400,-24,404,-33,409
			M -11,400
			C -5,392,-5,383,-3,374
			M 187,302
			C 205,301,191,274,221,278
			M 233,272
			C 247,262,259,271,273,253
			C 287,241,311,247,323,232
			M 182,249
			C 195,245,204,231,218,226
			C 229,223,243,226,252,219
			M 257,197
			C 242,200,241,210,221,206
			C 210,205,202,216,191,218
			M 183,196
			C 181,201,180,206,175,210
			C 170,219,166,230,164,240
			M 179,219
			C 170,224,171,238,168,247
			C 165,254,168,260,170,267
			C 172,277,163,292,174,298
			M 156,246
			C 160,256,156,266,154,276
			C 154,282,158,288,157,293
			M 147,241
			C 151,251,145,261,144,271
			C 144,278,148,284,148,291
			C 148,295,146,300,150,303
			M 163,247
			C 163,255,163,262,164,270
			C 164,280,157,294,167,300
			M 176,305
			C 179,306,183,311,186,309
			M 180,263
			C 181,270,180,280,188,282
			M 248,234
			C 253,232,254,235,257,237
			C 263,236,261,242,257,242
			C 249,245,241,248,234,252
			C 231,255,227,255,223,253
			C 219,253,216,257,212,256
			C 223,247,233,236,248,234
			M 273,233
			C 286,220,280,226,294,226
			C 307,224,315,213,326,207
			C 340,205,355,201,367,192
			M 304,190
			C 300,194,294,194,290,191
			M 314,195
			C 306,215,286,197,274,209
			M 343,187
			C 363,173,397,185,413,164
			M 458,176
			C 442,186,425,198,407,205
			C 395,207,383,205,373,212
			C 360,219,345,223,335,233
			M 513,132
			C 506,137,500,143,495,150
			C 494,153,492,154,489,155
			C 482,159,477,170,468,170
			M 455,156
			C 447,162,439,173,427,174
			M 404,185
			C 399,187,394,190,388,192
			M 366,203
			C 359,205,353,211,346,215
			M 124,189
			C 124,212,98,213,93,230
			C 89,243,86,259,94,272
			M 132,178
			C 140,212,129,202,119,225
			C 106,235,101,253,106,268
			C 106,273,104,279,109,283
			M 152,194
			C 149,211,134,211,136,241
			M 141,180
			C 142,185,141,189,139,193
			M 166,189
			C 166,197,164,203,159,209
			C 157,214,157,220,155,225
			M 48,160
			C 45,171,48,182,53,191
			C 55,199,50,208,55,214
			M 34,159
			C 36,169,37,178,37,188
			C 35,197,38,205,43,213
			M 38,157
			C 38,162,39,167,40,172
			M 83,190
			C 77,197,82,205,87,210
			C 89,215,90,220,97,217
			C 124,204,107,166,83,190
			M 90,204
			C 94,214,104,205,102,198
			C 97,196,87,197,90,204
			M 94,218
			C 95,215,95,212,96,209
			C 94,212,91,214,89,216
			l 0,0
			M 96,209
			C 97,211,98,213,99,216
			M 89,200
			C 85,204,85,195,89,194
			C 93,193,98,193,102,192
			C 107,191,107,201,102,198
			M 94,192
			C 93,188,98,189,97,193
			M 160,121
			C 151,145,166,129,159,162
			M 147,166
			C 148,171,147,177,145,182
			M 182,298
			C 189,298,193,292,195,287
			M 193,304
			C 199,300,204,294,207,287
			C 207,286,208,284,210,284
			C 243,283,230,276,251,271
			M -31,243
			C -30,248,-23,249,-20,253
			C -16,259,-18,269,-12,274
			C -8,277,-8,281,-9,285
			C -11,301,-7,317,-6,333
			M 240,274
			C 249,268,264,274,273,266
			C 276,263,278,260,281,258
			C 287,256,293,257,298,253
			C 309,245,323,245,335,240
			C 340,237,344,231,349,232
			M 345,232
			C 351,226,362,225,371,224
			C 388,218,404,210,421,206
			M 182,325
			C 179,336,185,346,189,356
			C 187,367,196,375,197,386
			C 196,393,208,394,210,402
			M -104,197
			C -98,197,-95,204,-89,205
			C -73,202,-67,211,-57,221
			C -48,226,-35,227,-35,241
			C -31,249,-21,252,-19,262
			M 257,193
			C 235,203,211,201,191,215
			C 187,216,180,217,179,222
			C 180,214,184,206,188,199
			C 191,194,190,186,195,182
			M 32,160
			C 33,167,32,175,34,181
			C 37,190,35,200,36,209
			C 34,205,30,201,28,207
			C 28,210,28,214,24,217
			C 23,209,14,189,6,198
			C 5,200,4,202,3,199
			C -4,175,-12,191,-24,177
			C -28,160,-38,173,-43,156
			M 413,158
			C 404,173,386,177,370,175
			C 367,175,364,175,363,177
			C 361,184,358,181,353,180
			C 343,180,318,205,311,194
			C 310,195,309,195,308,194
			l 2,-4
			C 307,190,305,190,303,191
			C 305,176,331,168,329,152
			M -198,-94
			C -177,-101,-155,-109,-132,-110
			C -124,-110,-116,-107,-108,-108
			C -90,-114,-71,-112,-52,-114
			M -21,-114
			C -14,-116,-7,-117,-1,-112
			C 11,-112,23,-113,34,-110
			M 60,-108
			C 72,-106,85,-109,97,-110
			C 100,-110,101,-111,103,-112
			C 105,-112,108,-111,109,-113
			M 127,-113
			C 141,-116,152,-103,168,-110
			C 224,-116,281,-109,336,-105
			l -11,8
			C 333,-95,329,-91,325,-88
			C 347,-80,371,-88,394,-86
			C 405,-85,415,-82,426,-81
			C 451,-84,476,-66,499,-74
			C 514,-79,538,-80,553,-72
			C 564,-71,576,-74,587,-69
			C 589,-68,588,-69,591,-68
			M 336,-105
			C 335,-99,336,-92,338,-85
			M 330,-93
			C 330,-90,331,-87,332,-85
			M 272,-109
			C 319,-121,362,-144,398,-175
			C 406,-182,414,-189,424,-192
			C 434,-184,444,-175,452,-165
			C 462,-151,473,-138,486,-128
			C 509,-110,530,-88,556,-74
			M 382,-161
			l -12,11
			l 28,-10
			C 395,-155,393,-150,392,-144
			C 426,-170,407,-159,423,-147
			l 8,-10
			C 434,-155,435,-147,440,-148
			C 442,-149,442,-154,445,-153
			C 452,-151,458,-147,464,-144
			C 461,-149,459,-153,457,-158
			M 220,-115
			C 246,-124,269,-142,293,-154
			C 304,-148,314,-140,325,-133
			C 326,-133,327,-132,327,-132
			C 328,-133,328,-135,328,-134
			M 269,-139
			l -6,6
			l 18,-7
			C 280,-139,279,-137,280,-135
			C 287,-140,290,-141,297,-134
			C 295,-141,300,-141,304,-137
			C 306,-135,311,-137,309,-140
			l 6,3
			C 315,-139,314,-141,312,-142
			M 483,-134
			C 570,-178,507,-182,591,-112
			M 512,-149
			C 510,-147,508,-144,507,-142
			l 16,-8
			C 522,-147,521,-145,520,-142
			C 532,-153,534,-144,544,-138
			C 545,-141,545,-144,546,-147
			l 13,7
			M 421,-268
			C 423,-276,424,-285,425,-294
			C 422,-295,423,-299,425,-300
			C 427,-302,434,-300,431,-297
			C 429,-294,426,-294,423,-295
			C 426,-294,430,-295,431,-297
			C 438,-290,444,-283,450,-275
			M 426,-282
			l 0,0
			C 432,-282,434,-288,439,-283
			C 440,-283,440,-283,440,-283
			l 1,1
			M 422,-283
			C 421,-282,420,-282,418,-282
			C 420,-280,419,-277,417,-278
			C 417,-274,419,-273,414,-271
			C 414,-270,416,-270,416,-268
			C 417,-267,415,-265,416,-264
			C 417,-263,420,-264,420,-262
			C 419,-258,424,-259,426,-258
			C 428,-256,430,-258,432,-259
			C 439,-256,435,-263,446,-260
			C 445,-268,451,-263,450,-272
			C 453,-263,448,-264,447,-257
			C 435,-259,441,-252,432,-256
			C 426,-251,427,-258,423,-255
			C 419,-257,417,-261,414,-264
			M 428,-273
			C 426,-271,429,-271,430,-269
			C 432,-268,435,-269,436,-270
			C 441,-275,431,-278,428,-273
			M 415,-279
			C 405,-290,398,-302,389,-313
			C 395,-293,404,-275,411,-256
			C 416,-249,426,-245,433,-239
			l -4,-13
			M 386,-311
			C 393,-291,400,-271,409,-252
			C 415,-246,422,-242,429,-236
			M 382,-309
			C 391,-289,398,-267,407,-247
			C 413,-242,420,-239,425,-234
			M 384,-301
			C 382,-301,381,-300,380,-300
			l 14,23
			M 433,-469
			l 7,15
			M 447,-443
			C 450,-438,453,-433,456,-428
			M 463,-418
			C 466,-414,470,-409,473,-405
			M 480,-397
			C 483,-393,487,-389,490,-385
			M 496,-378
			C 499,-375,503,-371,506,-368
			M 512,-363
			l 13,10
			M 532,-349
			C 536,-345,540,-343,544,-340
			M 552,-336
			C 556,-332,561,-330,565,-327
			M 574,-322
			C 579,-320,583,-318,588,-316
			M 476,-451
			C 480,-445,479,-438,481,-432
			C 483,-438,486,-444,488,-450
			M 490,-433
			C 495,-459,500,-456,504,-432
			M 492,-442
			l 9,0
			M 517,-448
			C 510,-459,500,-425,519,-434
			M 522,-450
			C 518,-424,540,-427,534,-451
			M 540,-449
			C 533,-425,558,-428,552,-451
			M 556,-433
			C 556,-438,557,-443,557,-449
			C 569,-437,564,-444,574,-450
			C 575,-444,572,-437,573,-431
			M 505,-400
			C 511,-402,512,-409,511,-415
			C 507,-419,502,-419,497,-419
			C 498,-414,498,-410,498,-405
			C 497,-398,498,-396,505,-400
			M 526,-417
			C 522,-419,518,-419,514,-419
			C 516,-397,509,-398,526,-402
			M 522,-411
			C 520,-411,516,-409,515,-410
			M 541,-417
			C 526,-427,526,-392,541,-403
			M 544,-400
			C 548,-425,554,-422,559,-399
			M 546,-408
			C 549,-409,552,-410,556,-409
			M 567,-398
			l 0,-12
			C 564,-410,562,-415,559,-416
			M 567,-410
			C 569,-413,572,-415,575,-418
			M 4,-376
			C 3,-373,1,-369,0,-366
			C -11,-371,-25,-373,-38,-377
			C -35,-382,-42,-384,-45,-388
			l 8,-8
			C -33,-394,-25,-378,-24,-388
			C -28,-389,-25,-396,-21,-394
			C -17,-393,-19,-387,-23,-388
			C -25,-384,-22,-384,-19,-383
			C -13,-382,-1,-377,4,-376
			M -39,-370
			C -40,-365,-31,-369,-35,-372
			C -37,-374,-39,-372,-39,-370
			M -25,-368
			C -26,-367,-25,-364,-23,-365
			C -17,-364,-22,-374,-25,-368
			M -9,-361
			C -5,-356,1,-363,-5,-366
			C -7,-366,-10,-363,-9,-361
			M -35,-372
			C -28,-376,-21,-381,-23,-370
			M -6,-366
			C -6,-368,-5,-372,-7,-374
			C -12,-376,-17,-378,-22,-379
			C -22,-379,-24,-376,-24,-376
			M -4,-379
			l 4,-12
			C -1,-392,-2,-392,-4,-392
			C -2,-394,-1,-397,-1,-400
			C 3,-399,7,-398,11,-396
			C 11,-394,10,-391,9,-388
			C 7,-389,5,-390,3,-390
			C 2,-387,0,-380,0,-378
			M 2,-370
			C 7,-364,10,-375,4,-374
			C 4,-374,4,-375,4,-375
			M 20,-381
			C 20,-377,25,-377,26,-380
			C 28,-385,20,-386,20,-381
			M 7,-373
			C 11,-374,15,-377,19,-379
			M 23,-378
			C 24,-375,24,-369,24,-366
			M 25,-363
			C 25,-362,27,-362,28,-361
			C 28,-364,29,-366,29,-368
			C 29,-368,27,-368,27,-368
			C 25,-368,25,-364,25,-363
			M 26,-361
			C 26,-360,26,-359,26,-357
			l 0,0
			M 25,-343
			C 26,-344,28,-344,29,-345
			C 28,-342,33,-338,36,-339
			C 35,-338,35,-336,35,-335
			M 31,-344
			C 33,-341,35,-339,38,-338
			C 41,-345,31,-351,29,-345
			C 31,-352,22,-350,27,-347
			C 28,-347,28,-344,30,-344
			C 31,-344,31,-343,32,-343
			M 37,-338
			C 37,-337,38,-336,39,-336
			M 99,-391
			C 104,-358,160,-347,175,-378
			M 179,-389
			C 196,-446,105,-460,99,-403
			M 185,-396
			C 250,-368,27,-405,97,-411
			M 98,-416
			C -45,-426,202,-361,224,-385
			C 220,-395,195,-400,184,-402
			M 251,-382
			C 247,-380,250,-374,255,-375
			C 260,-377,256,-385,251,-382
			M -190,-419
			C -194,-416,-197,-413,-201,-409
			C -198,-407,-167,-428,-176,-427
			C -186,-425,-208,-412,-208,-402
			C -199,-400,-172,-418,-167,-427
			M -96,-432
			C -89,-425,-82,-428,-93,-434
			C -115,-445,-91,-421,-82,-421
			C -76,-423,-86,-433,-89,-435
			M -237,-324
			C -232,-327,-228,-330,-223,-334
			C -229,-333,-234,-334,-240,-334
			C -235,-330,-230,-326,-226,-323
			C -227,-328,-229,-333,-231,-338
			C -233,-333,-235,-328,-237,-324
			M -253,-328
			l 0,0
			M -254,-332
			C -254,-332,-254,-333,-254,-334
			M -251,-332
			C -250,-332,-250,-333,-249,-333
			M -249,-328
			C -248,-329,-248,-329,-247,-329
			M -250,-325
			C -249,-325,-249,-324,-248,-324
			M -253,-324
			l 0,2
			M -255,-324
			C -256,-324,-256,-323,-256,-322
			M -259,-326
			C -259,-326,-260,-325,-260,-325
			M -257,-330
			C -258,-330,-258,-331,-259,-331
			M -185,-103
			C -287,-237,-131,-426,18,-347
			C 104,-298,138,-193,80,-109
			M 43,-300
			C 46,-300,50,-298,53,-298
			C 60,-298,61,-290,63,-285
			M 28,-310
			C 34,-310,34,-310,34,-304
			M 48,-325
			C 47,-323,50,-322,51,-320
			C 52,-318,53,-317,55,-317
			C 56,-316,56,-312,59,-313
			M 74,-298
			C 71,-295,73,-290,77,-288
			C 77,-282,76,-279,82,-275
			C 87,-270,85,-263,89,-257
			C 92,-253,94,-249,98,-245
			C 101,-243,102,-239,104,-235
			M 107,-219
			l -2,-2
			C 104,-218,104,-214,105,-210
			l 1,-1
			C 105,-206,106,-202,106,-198
			C 107,-198,107,-199,107,-199
			C 108,-198,108,-197,107,-197
			C 107,-197,107,-198,108,-198
			M 104,-166
			C 102,-167,99,-161,101,-160
			C 104,-158,94,-149,98,-143
			M -203,-227
			C -202,-229,-201,-227,-202,-226
			C -200,-234,-195,-241,-193,-249
			C -193,-251,-194,-254,-192,-255
			C -202,-243,-203,-246,-203,-227
			M -192,-285
			C -189,-285,-187,-287,-184,-287
			C -181,-287,-178,-282,-175,-282
			C -141,-282,-148,-295,-126,-302
			C -120,-303,-115,-301,-109,-305
			C -100,-311,-90,-314,-81,-318
			C -67,-332,-53,-345,-40,-359
			C -42,-360,-47,-352,-40,-359
			C -42,-360,-42,-363,-41,-364
			M -161,-154
			C -161,-154,-162,-154,-162,-154
			C -162,-153,-161,-154,-162,-154
			M -151,-149
			C -151,-149,-150,-147,-150,-148
			M -138,-146
			C -138,-145,-137,-144,-136,-145
			M -102,-144
			C -104,-143,-107,-139,-104,-137
			C -103,-137,-100,-140,-101,-138
			C -100,-140,-99,-143,-102,-143
			C -102,-143,-103,-142,-103,-142
			C -103,-143,-103,-143,-103,-143
			M -202,-141
			C -198,-139,-198,-132,-196,-128
			C -195,-130,-192,-128,-193,-126
			C -194,-124,-195,-122,-194,-121
			C -187,-120,-191,-115,-188,-111
			l -1,-2
			M -216,-198
			C -214,-196,-213,-193,-215,-191
			C -213,-190,-213,-177,-213,-174
			M -202,-171
			C -202,-168,-203,-165,-200,-164
			M 255,-261
			C 254,-272,258,-284,265,-293
			C 276,-277,268,-258,266,-241
			C 263,-240,258,-243,255,-241
			C 253,-247,255,-255,255,-261
			M 257,-237
			C 247,-231,260,-220,258,-211
			C 257,-220,270,-227,264,-236
			M 259,-233
			C 257,-232,258,-228,258,-226
			M 262,-233
			C 263,-231,262,-228,261,-226
			M 268,-251
			C 275,-250,272,-242,273,-237
			C 271,-239,269,-240,267,-241
			M 254,-253
			C 247,-252,247,-245,247,-240
			C 249,-241,252,-242,254,-243
			M 255,-267
			C 260,-264,265,-264,270,-264
			M 254,-260
			C 259,-259,264,-259,269,-258
			M 124,-293
			C 127,-296,132,-295,134,-292
			C 135,-296,143,-296,145,-292
			M 153,-312
			C 158,-311,161,-306,163,-302
			C 165,-306,169,-310,173,-312
			M 168,-288
			C 177,-296,183,-297,187,-285
			M 175,-206
			C 164,-216,145,-206,146,-192
			C 152,-161,194,-181,175,-206
			M 162,-215
			l 0,-6
			M 170,-214
			C 171,-217,172,-219,173,-220
			M 178,-211
			C 179,-212,180,-214,182,-216
			M 184,-202
			C 186,-203,188,-203,190,-204
			M 185,-190
			C 187,-190,189,-189,192,-189
			M 182,-182
			C 184,-181,186,-180,188,-179
			M 174,-174
			C 175,-173,176,-171,177,-169
			M 163,-172
			C 163,-170,163,-168,163,-166
			M 152,-175
			l -4,5
			M 145,-181
			C 143,-180,141,-179,140,-178
			M 140,-190
			C 139,-189,137,-189,135,-189
			M 141,-198
			C 139,-199,137,-200,136,-200
			M 145,-206
			C 144,-207,142,-208,141,-209
			M 152,-212
			l -2,-4
			M -18,393
			C -32,391,-44,404,-59,405
			C -70,405,-79,414,-91,415
			C -103,416,-97,421,-112,424
			M -150,435
			C -155,438,-161,436,-166,440
			C -170,443,-193,451,-190,456
			C -191,456,-193,457,-194,459
			C -183,457,-156,441,-148,448
			l -2,4
			C -149,452,-148,453,-147,453
			C -150,456,-153,459,-157,461
			C -142,457,-126,461,-117,473
			C -123,466,-117,448,-106,448
			C -103,449,-101,446,-100,443
			C -97,439,-91,442,-86,442
			C -78,441,-35,443,-43,458
			C -50,463,-53,470,-42,465
			C -37,462,-31,464,-27,468
			C -25,465,-31,461,-29,457
			C -26,455,-15,445,-11,449
			C -8,450,-4,446,0,444
			C 7,441,15,445,20,439
			C 34,434,50,445,52,460
			C 46,465,38,467,31,471
			C 45,471,60,470,72,478
			C 71,474,58,458,68,459
			C 73,459,72,451,75,448
			C 84,442,90,454,101,443
			C 111,433,131,449,133,435
			C 140,441,147,449,155,455
			C 165,458,172,465,178,475
			C 170,460,181,440,198,441
			C 201,438,202,435,201,431
			C 211,434,221,435,231,435
			C 233,434,234,438,231,439
			C 243,437,256,440,268,442
			C 277,442,284,449,291,454
			C 301,458,313,461,318,471
			C 319,467,320,464,323,461
			C 323,454,312,449,315,443
			C 323,436,347,444,358,445
			C 356,435,377,441,383,440
			C 377,433,368,430,359,431
			C 361,430,358,428,356,427
			C 338,425,321,416,304,413
			C 294,411,283,411,273,409
			C 252,400,229,402,206,401
			M 485,533
			C 517,540,550,541,582,536
			C 583,521,585,500,576,487
			C 567,477,552,475,542,466
			C 535,461,528,452,518,453
			C 503,453,492,452,482,464
			C 479,466,475,462,472,465
			C 468,456,460,468,453,465
			C 462,470,452,479,445,478
			C 451,486,444,499,434,498
			C 438,511,422,517,411,516
			C 413,539,382,544,365,535
			C 365,542,361,549,354,552
			M 567,538
			C 565,546,558,549,551,549
			M 513,464
			C 503,463,494,473,496,483
			C 498,493,512,498,521,495
			C 538,488,531,463,513,464
			M 513,472
			C 504,474,507,486,514,487
			C 529,489,528,469,513,472
			M 513,486
			C 510,481,518,473,523,476
			M 515,486
			C 512,481,519,474,523,478
			M 516,487
			C 514,483,519,476,524,479
			M 517,487
			C 516,484,520,479,524,481
			M 518,487
			C 519,484,520,481,524,482
			M 520,486
			C 520,484,521,483,523,483
			M 521,475
			C 512,470,504,478,512,485
			l 0,0
			M 472,465
			C 449,481,439,513,436,540
			M 478,467
			C 456,482,446,525,454,549
			M 464,462
			C 465,447,439,444,428,444
			C 425,441,421,440,417,442
			C 411,427,367,425,351,427
			M 381,438
			C 395,430,423,441,428,456
			C 423,469,406,464,407,480
			C 398,482,390,490,390,500
			C 360,499,364,499,346,520
			C 326,519,307,526,292,540
			C 281,544,270,547,259,550
			l 1,-3
			M 389,498
			C 397,502,407,511,411,516
			M 406,480
			C 416,482,432,485,435,498
			l 0,-1
			M 444,478
			C 438,470,428,467,418,466
			M 429,456
			C 437,455,453,456,455,466
			C 456,466,456,465,456,465
			M 425,450
			C 426,448,427,445,430,444
			M 395,486
			C 390,468,373,448,355,445
			M 360,501
			C 345,496,331,486,321,474
			C 286,473,243,477,210,489
			C 206,500,200,510,196,520
			C 198,534,209,546,221,552
			M 212,487
			C 172,467,180,476,140,482
			C 123,485,106,489,90,494
			C 82,490,75,483,70,476
			M 90,495
			C 89,552,83,530,132,551
			M 63,550
			C 73,546,82,542,90,537
			M 30,472
			C 16,476,1,478,-13,484
			C -27,497,-42,511,-52,528
			C -38,533,-25,541,-14,551
			M -15,483
			C -18,477,-24,473,-29,469
			M -52,528
			C -75,523,-98,529,-120,533
			C -155,524,-175,522,-205,546
			M -120,533
			C -121,538,-121,546,-119,549
			M -50,467
			C -73,466,-94,479,-117,479
			C -133,488,-162,507,-165,527
			M -185,533
			C -196,527,-205,516,-207,504
			C -197,484,-177,470,-157,462
			M -194,459
			C -204,461,-213,468,-218,477
			C -218,484,-207,494,-202,495
			M -220,477
			C -227,480,-233,484,-237,490
			M -231,507
			C -223,508,-215,507,-208,504
			M -245,498
			C -256,505,-263,516,-265,528
			C -255,537,-242,547,-227,545
			M -265,530
			C -271,531,-277,538,-280,544
			M -53,429
			C -53,428,-54,427,-55,425
			M -50,429
			C -50,427,-50,425,-50,423
			M -47,430
			C -47,428,-46,426,-45,425
			M -44,431
			C -43,429,-42,428,-41,427
			M 70,428
			C 68,426,66,430,68,431
			C 70,431,71,429,70,428
			M 126,427
			C 125,426,124,427,125,428
			C 126,429,128,427,126,426
			M 26,427
			C 26,425,26,424,25,422
			M 29,427
			C 29,425,29,421,31,421
			M 32,427
			C 32,426,33,424,35,424
			M 22,428
			C 22,427,20,426,20,426
			M -128,455
			C -128,449,-130,440,-130,435
			C -136,436,-142,437,-148,437
			l 13,-18
			C -139,420,-143,420,-146,421
			C -141,416,-136,411,-132,405
			C -136,405,-140,406,-144,407
			C -139,402,-135,397,-133,391
			l -8,2
			C -137,389,-134,385,-131,381
			C -133,381,-135,381,-137,382
			C -134,377,-132,371,-131,364
			C -127,372,-123,379,-119,386
			C -121,386,-124,386,-126,385
			C -123,391,-119,396,-114,401
			C -117,401,-120,401,-123,401
			C -119,407,-114,412,-109,417
			l -9,1
			l 12,14
			C -112,432,-118,433,-124,433
			l 2,21
			C -124,454,-126,455,-128,455
			M -147,454
			C -146,452,-145,451,-143,451
			C -141,449,-140,447,-138,446
			M -153,446
			C -150,444,-144,446,-141,443
			M -110,422
			C -107,420,-104,418,-101,417
			M -86,413
			C -85,411,-81,409,-80,412
			M -53,403
			C -52,400,-50,400,-48,402
			M -95,422
			l 1,0
			M -77,416
			l 1,0
			M -64,411
			l 2,0
			M 255,402
			C 257,400,258,403,259,403
			M 286,411
			C 287,409,290,408,291,410
			M 323,418
			C 324,416,326,417,327,419
			M 245,408
			C 247,408,249,408,251,409
			M 292,416
			l 3,1
			M 310,419
			l 4,1
			M 334,426
			C 335,426,336,427,337,427
			M 200,430
			C 200,428,195,428,195,425
			M 257,426
			l -2,-6
			M 259,426
			C 259,423,260,420,261,416
			M 253,426
			C 253,426,252,425,251,424
			M 262,426
			C 262,425,263,423,264,423
			M 211,425
			C 210,424,210,422,210,422
			M 213,425
			C 213,423,212,420,214,418
			M 214,425
			C 215,424,216,422,217,422
			M 208,426
			C 208,425,207,424,207,425
			M 230,401
			l 5,-16
			C 237,391,238,396,240,402
			M 236,386
			C 236,382,236,378,237,374
			M 228,388
			C 231,383,233,378,236,373
			C 239,378,240,383,241,389
			M 233,359
			C 231,365,237,369,242,367
			C 243,370,240,375,241,377
			C 242,377,242,377,243,377
			C 248,379,244,370,246,367
			C 248,361,243,356,237,357
			C 223,358,227,381,241,372
			M 231,374
			l -1,4
			C 232,377,233,377,235,378
			C 237,377,239,378,242,378
			M 65,-52
			C 65,-53,64,-54,63,-55
			M 68,-53
			C 67,-55,67,-58,65,-60
			M 70,-52
			C 71,-56,71,-60,73,-64
			M 73,-52
			C 74,-54,76,-56,78,-57
			M -280,252
			C -282,235,-282,218,-282,201
			M -73,167
			C -72,169,-66,167,-65,165
			C -64,163,-62,163,-61,162
			M -33,158
			C -28,163,-24,157,-24,159
			M -107,183
			C -107,180,-104,181,-103,182
			C -97,183,-87,183,-85,176
			C -81,174,-77,175,-74,172
			C -74,170,-72,168,-70,168
			C -62,167,-66,161,-57,162
			C -55,161,-54,158,-52,157
			C -49,156,-47,144,-45,153
			M -11,160
			C -5,162,0,154,7,157
			C 8,156,8,158,10,158
			C 11,158,15,158,14,157
			C 14,157,14,157,14,157
			M 47,161
			C 49,161,51,162,52,161
			C 54,159,57,162,60,162
			M 70,162
			C 68,167,72,163,73,165
			C 75,163,75,163,73,162
			C 73,162,74,162,74,162
			M 137,176
			C 135,180,141,181,140,178
			M 155,186
			C 155,186,154,188,154,189
			C 155,190,159,189,158,188
			M 123,177
			C 124,178,127,176,129,177
			C 131,178,135,177,138,176
			M 173,192
			C 178,190,186,193,188,188
			C 199,184,201,173,210,182
			C 211,185,213,183,215,183
			C 215,185,218,183,219,184
			C 227,188,233,176,241,180
			l -1,0
			C 244,180,247,176,245,173
			C 245,170,249,169,251,168
			C 252,166,252,165,254,165
			C 260,163,266,161,272,159
			M 330,156
			C 332,155,334,156,336,156
			C 337,156,338,155,339,155
			C 340,156,341,156,342,156
			C 343,158,344,156,345,157
			C 345,157,346,157,346,157
			C 346,157,346,158,346,158
			M 365,153
			C 367,147,376,148,381,144
			C 382,146,384,144,385,145
			C 387,147,389,145,391,147
			C 393,148,397,144,399,146
			C 400,148,402,147,404,147
			l 0,1
			C 404,149,406,149,406,148
			M 460,146
			C 461,143,464,142,467,141
			C 468,140,470,138,472,138
			C 473,138,474,138,474,138
			l 0,-1
			M 481,130
			C 484,124,489,121,495,120
			C 496,118,497,117,499,118
			C 500,119,502,117,503,119
			C 505,121,508,119,510,120
			M 525,119
			C 527,117,528,114,532,116
			C 532,116,533,115,534,116
			C 534,115,535,115,536,115
			C 537,115,538,114,538,114
			M 552,109
			l 0,0
			C 552,103,561,103,564,98
			M 43,159
			C 42,168,43,178,47,186
			M 62,162
			C 62,168,60,175,64,181
			C 65,185,62,190,64,195
			M 54,158
			C 53,161,55,178,57,180
			M 83,163
			C 84,166,81,169,81,173
			C 83,179,80,184,82,186
			M 87,161
			C 86,165,86,167,87,171
			C 88,174,87,180,88,183
			M 92,168
			C 91,172,91,176,93,179
			M 98,170
			l 0,-1
			C 98,173,100,177,98,180
			C 97,181,99,181,100,181
			M 95,169
			l 0,4
			M 90,165
			C 89,166,89,168,90,170
			M 84,162
			l -1,5
			M 78,162
			C 77,164,76,167,77,169
			M 66,162
			C 66,163,64,169,67,169
			M 109,181
			C 109,183,110,185,111,186
			M 113,183
			C 113,185,114,187,114,189
			M 124,177
			C 125,179,123,183,124,185
			M 129,180
			C 129,184,129,189,128,193
			M 148,182
			C 147,184,147,186,147,188
			M 172,191
			C 171,199,169,208,163,215
			M 178,192
			C 178,195,177,197,176,199
			M 162,189
			C 162,190,161,192,160,193
			M 271,160
			C 272,162,271,163,274,164
			C 274,165,273,168,275,168
			M 280,157
			C 280,159,282,161,281,162
			M 287,152
			C 288,155,289,158,288,161
			M 292,159
			l -1,1
			C 291,159,292,159,292,158
			C 292,157,291,156,291,155
			C 290,154,291,152,290,151
			C 291,152,292,153,292,154
			C 292,155,293,156,294,157
			C 293,158,293,159,294,160
			C 294,161,294,162,294,164
			C 294,164,295,166,294,167
			M 284,155
			C 283,156,284,158,284,159
			M 276,159
			C 276,160,276,160,277,161
			M 308,154
			C 307,155,305,157,304,157
			C 303,158,302,160,301,161
			M 312,157
			l 0,0
			C 310,161,302,162,303,165
			M 317,158
			l -5,5
			M 326,157
			C 326,161,322,164,320,167
			C 319,169,316,170,315,172
			M 309,176
			C 307,178,305,181,304,183
			M 300,164
			C 298,165,297,167,296,168
			M 310,156
			C 309,157,307,158,306,159
			M 410,171
			C 416,168,417,164,419,159
			M 427,157
			C 427,157,424,163,425,164
			C 425,166,422,167,421,169
			C 421,171,420,173,418,173
			M 435,155
			C 437,156,434,158,434,160
			C 435,161,433,163,433,163
			M 417,158
			l 0,-1
			C 411,161,413,166,403,170
			M 432,156
			C 431,158,430,159,430,161
			M 424,158
			C 423,158,422,159,422,160
			M 440,152
			l -1,6
			M 455,147
			C 456,151,453,154,450,156
			M 495,120
			C 491,123,487,128,482,132
			M 505,120
			l 0,-1
			C 502,122,499,126,496,130
			M 500,119
			C 497,121,494,124,493,128
			M 479,135
			C 476,138,473,142,469,143
			C 467,143,466,144,465,145
			C 463,146,461,147,461,149
			M 481,136
			C 477,140,472,143,469,148
			M 503,120
			C 501,122,499,123,498,126
			M 499,118
			l -4,5
			M 489,122
			l 0,-1
			C 488,123,486,125,485,127
			C 485,127,485,127,486,127
			M 510,122
			l 1,-1
			C 508,122,507,125,506,127
			l 1,-1
			M 514,124
			C 512,125,511,128,508,129
			C 508,129,508,129,508,129
			M 529,122
			C 528,125,526,127,523,128
			M 517,133
			C 509,141,502,149,493,156
			M 492,159
			l -3,3
			M 522,132
			l 11,-9
			M 535,121
			C 536,118,539,116,541,115
			M 535,114
			C 534,116,532,117,531,118
			M 531,116
			C 530,115,525,123,526,123
			M 516,127
			C 515,128,514,129,513,130
			M 521,126
			C 520,127,519,128,518,129
			M 416,161
			C 416,160,417,159,418,158
			M -108,182
			C -107,186,-104,188,-102,191
			M -104,180
			C -104,183,-103,185,-100,186
			C -98,188,-96,188,-96,191
			C -94,192,-91,195,-88,194
			M -97,182
			C -95,185,-92,188,-88,189
			M -90,181
			C -89,183,-87,185,-84,187
			M -85,179
			C -84,181,-81,184,-79,185
			M -81,176
			C -79,179,-76,180,-73,182
			C -71,186,-69,185,-66,186
			C -65,187,-64,189,-63,190
			C -62,190,-59,188,-58,190
			M -73,169
			C -73,171,-72,172,-71,172
			M -49,153
			C -49,160,-43,168,-38,170
			M -56,160
			C -55,163,-54,166,-51,168
			M -46,152
			C -46,154,-45,159,-42,160
			M -53,158
			C -52,160,-51,162,-51,163
			M -62,163
			C -62,164,-61,166,-59,167
			M -105,189
			C -104,194,-97,195,-94,198
			M -87,200
			C -82,201,-75,201,-71,205
			M -60,213
			C -57,217,-55,221,-50,221
			C -48,222,-48,223,-46,222
			C -44,222,-43,224,-42,225
			C -40,227,-35,225,-34,229
			M -75,194
			C -73,196,-72,196,-69,196
			M -106,182
			C -106,183,-104,187,-102,187
			M -94,183
			C -94,182,-94,182,-94,182
			C -92,184,-92,184,-91,184
			M -87,180
			C -87,181,-87,180,-86,181
			M -83,176
			C -83,177,-82,178,-81,179
			M -77,174
			C -77,175,-76,176,-75,177
			M -69,169
			C -69,169,-68,170,-67,171
			M -40,172
			l 4,3
			M -30,178
			C -27,182,-25,188,-20,189
			M -16,191
			C -15,190,-14,191,-13,191
			C -11,193,-8,193,-6,195
			M 272,173
			C 273,177,268,179,266,180
			M 263,185
			C 262,187,262,189,261,191
			M 174,230
			l -3,13
			M 170,249
			C 168,257,171,255,172,261
			M 172,271
			C 173,277,169,282,172,287
			M 173,292
			C 174,294,176,295,177,295
			M 182,235
			C 182,232,185,228,188,229
			C 194,227,199,221,205,219
			M 212,281
			C 216,279,220,281,225,281
			C 234,280,239,269,248,269
			C 254,270,260,266,265,264
			C 265,265,266,265,266,264
			M 209,267
			C 213,263,220,266,225,265
			M 231,264
			C 237,261,244,259,250,256
			C 252,253,255,251,259,249
			C 265,243,278,247,284,240
			M 308,232
			C 312,230,315,227,319,226
			M 356,225
			C 360,224,365,221,369,220
			C 372,219,375,220,377,218
			M 384,215
			C 392,208,405,211,413,205
			C 415,203,418,204,420,203
			C 426,202,429,196,435,196
			M 443,191
			C 453,184,462,178,472,172
			M -193,-200
			l 0,0
			C -193,-200,-193,-201,-192,-201
			C -191,-206,-190,-208,-196,-209
			C -197,-206,-197,-203,-198,-200
			C -197,-200,-195,-200,-194,-199
			C -193,-202,-193,-205,-192,-207
			M -190,-208
			C -190,-208,-191,-208,-191,-208
			C -191,-207,-192,-205,-190,-205
			C -191,-209,-188,-207,-190,-205
			M -192,-205
			C -192,-205,-192,-204,-192,-203
			C -192,-203,-191,-203,-191,-203
			C -192,-205,-189,-205,-191,-203
			l 0,0
			M -191,-202
			C -192,-202,-192,-203,-192,-202
			C -193,-201,-193,-200,-192,-200
			C -192,-203,-190,-202,-192,-200
			M -196,-209
			C -197,-210,-198,-206,-197,-206
			M -197,-205
			C -198,-207,-199,-203,-198,-203
			M -198,-203
			C -199,-203,-199,-200,-198,-200
			M -195,-209
			C -195,-210,-195,-211,-193,-210
			C -193,-210,-193,-210,-193,-210
			C -193,-210,-193,-209,-193,-208
			M 390,351
			C 391,347,393,343,396,339
			C 392,338,389,336,385,335
			C 382,350,378,347,390,351
			M 383,281
			C 375,324,436,325,443,288
			C 455,253,403,236,387,267
			C 378,288,382,313,384,335
			M 396,339
			C 408,329,421,318,433,307
			M 387,335
			C 390,318,393,301,396,284
			M 392,338
			C 395,336,397,333,399,330
			C 408,318,420,309,427,295
			M 384,275
			C 398,290,421,292,440,298
			M 388,267
			C 397,270,405,276,414,279
			C 424,282,434,286,443,292
			M 392,333
			C 393,332,393,328,394,329
			C 396,331,400,330,400,327
			C 397,322,389,327,392,332
			C 394,338,402,333,400,328
			M 393,325
			C 393,324,392,324,391,324
			C 389,326,391,329,389,331
			C 389,332,391,330,391,330
			M 400,338
			C 398,337,395,335,393,334
			C 392,335,392,336,391,337
			M 393,334
			C 393,336,395,337,396,338
			C 397,338,398,339,399,339
			M 394,338
			l 0,0
			C 395,338,395,338,395,338
			M 395,338
			C 395,339,395,339,395,339
			M 396,339
			C 396,339,396,339,396,339
			M 397,340
			C 397,340,397,340,397,340
			M 398,340
			C 398,340,398,340,398,340
			M 399,340
			C 399,340,399,340,399,339
			M 400,339
			C 400,339,400,339,400,339
			M 400,338
			C 400,338,401,338,401,338
			M 401,338
			C 402,338,402,338,402,338
			M 403,338
			C 403,338,403,338,403,338
			M 404,338
			C 404,338,404,338,404,338
			M 404,339
			C 404,339,405,339,405,339
			M 405,340
			C 405,340,405,340,405,340
			M 405,341
			C 405,341,405,341,405,342
			M 405,342
			C 405,342,405,343,405,343
			M 406,343
			C 406,343,406,344,406,344
			M 407,344
			C 407,344,407,344,407,344
			M 408,344
			C 408,344,408,344,408,344
			M 409,344
			C 409,344,409,344,409,344
			M 410,344
			C 410,343,410,343,410,343
			M 410,342
			C 410,342,410,342,410,342
			M 409,342
			C 409,341,409,342,409,342
			M 408,342
			C 408,343,408,343,408,344
			M 409,345
			l 0,0
			M 409,346
			l 0,1
			M 410,347
			C 410,347,410,347,410,347
			M 410,348
			C 410,348,410,348,410,348
			M 410,349
			l 0,1
			M 409,350
			C 409,350,409,350,408,351
			M 408,351
			C 408,351,408,351,407,351
			M 407,352
			C 407,352,406,352,406,352
			M 406,353
			C 406,353,406,353,406,353
			M 406,354
			C 406,354,406,354,406,354
			M 406,355
			C 406,355,406,355,407,355
			M 407,356
			C 407,356,407,356,407,356
			M 408,357
			C 408,357,408,357,408,357
			M 409,358
			C 409,358,409,358,409,358
			M 409,359
			l 0,1
			M 409,360
			C 409,360,409,360,409,360
			M 409,361
			C 409,361,409,362,409,362
			M 409,362
			C 409,363,409,363,409,363
			M 410,363
			l 0,0
			M 411,364
			l 0,0
			M 411,366
			C 412,367,414,367,414,365
			C 414,363,410,363,411,366
			M 414,367
			C 416,369,419,372,421,375
			M 424,368
			C 425,368,425,368,425,368
			C 424,373,419,378,413,379
			C 413,379,414,378,414,378
			l 0,0
			M 417,373
			C 418,372,419,371,419,370
			M 425,368
			C 424,374,419,378,413,379
			M 425,369
			C 425,375,419,378,414,379
			M 426,370
			C 424,375,420,379,414,379
			M 414,367
			C 416,370,418,373,421,376
			M 414,367
			C 416,370,419,372,422,375
			M 413,364
			C 412,364,412,366,413,366
			C 414,366,414,365,413,364
			M 284,-431
			C 283,-430,285,-428,285,-430
			C 285,-430,285,-431,284,-431
			M 300,-444
			C 299,-444,299,-442,300,-443
			C 301,-443,300,-445,299,-444
			M 299,-420
			C 298,-420,299,-419,299,-419
			C 300,-420,299,-421,299,-420
			M 313,-425
			C 311,-425,311,-424,313,-424
			C 313,-424,313,-426,312,-425
			M 286,-432
			C 290,-435,294,-439,298,-442
			M 286,-429
			C 290,-426,293,-424,297,-421
			M 301,-420
			l 10,-4
			M 300,-441
			C 299,-435,299,-428,299,-422
			M 301,-442
			C 305,-437,309,-432,312,-426
			M 286,-430
			C 290,-429,294,-429,298,-428
			M 300,-428
			C 304,-427,307,-427,310,-426
			M -50,-435
			C -51,-435,-51,-434,-50,-434
			C -49,-434,-49,-435,-50,-435
			M -41,-439
			C -43,-439,-42,-437,-41,-437
			C -40,-437,-40,-440,-42,-439
			M -31,-437
			C -33,-436,-31,-435,-30,-436
			C -30,-436,-31,-437,-32,-437
			M -48,-435
			C -47,-436,-44,-437,-43,-437
			M -39,-437
			l 5,1
			M -29,-436
			C -27,-435,-25,-435,-24,-434
			M -22,-434
			C -23,-435,-23,-432,-22,-432
			C -21,-432,-21,-434,-22,-434
			M -22,-431
			l 0,7
			M -23,-423
			C -25,-424,-24,-420,-23,-422
			C -22,-422,-23,-423,-23,-423
			M -21,-422
			C -19,-422,-16,-421,-13,-421
			M -11,-421
			C -12,-422,-12,-420,-12,-420
			C -11,-419,-10,-422,-12,-421
			M -10,-422
			C -9,-424,-7,-427,-5,-429
			M -4,-432
			C -5,-432,-6,-430,-5,-430
			C -4,-430,-3,-431,-4,-432
			M -49,-436
			C -46,-438,-44,-439,-41,-440
			M -40,-441
			C -40,-439,-37,-441,-39,-442
			C -40,-443,-40,-442,-40,-441
			M -37,-441
			C -35,-441,-33,-441,-30,-441
			M -29,-442
			C -31,-441,-28,-439,-28,-441
			C -27,-441,-28,-442,-29,-442
			M -27,-441
			C -25,-440,-22,-439,-20,-438
			M -18,-438
			C -20,-437,-18,-435,-17,-437
			C -17,-438,-18,-438,-18,-438
			M -18,-435
			C -18,-433,-18,-430,-18,-428
			M -19,-426
			C -19,-424,-16,-425,-17,-427
			C -18,-427,-19,-426,-19,-426
			M -13,-426
			C -14,-425,-12,-424,-11,-424
			C -10,-425,-12,-427,-13,-426
			M -16,-425
			C -15,-426,-15,-425,-14,-426
			M -11,-427
			C -10,-429,-8,-431,-7,-433
			M -7,-435
			C -7,-434,-5,-433,-5,-435
			C -5,-436,-7,-436,-7,-435
			M -4,-444
			C -2,-425,9,-450,0,-453
			C -4,-452,-4,-447,-4,-444
			M 1,-453
			C 12,-452,9,-437,-1,-437
			M -2,-452
			C -2,-450,-1,-448,-1,-445
			C 0,-445,1,-443,2,-443
			M 2,-451
			C 0,-448,-1,-445,-4,-443
			M -1,-437
			C -1,-440,-1,-443,-1,-446
			M -4,-448
			C -3,-447,-2,-446,-1,-445
			C 1,-446,2,-447,3,-447
			M 0,-453
			C -1,-448,-1,-444,1,-440
			M -3,-439
			C -2,-441,-2,-443,-1,-445
			M -16,-437
			C -14,-436,-11,-436,-8,-436
			M 250,-380
			C 250,-381,250,-382,249,-383
			C 250,-382,251,-382,252,-382
			l 0,0
			M 249,-383
			C 249,-383,248,-384,248,-384
			M 246,-386
			C 245,-387,245,-384,246,-384
			C 248,-384,248,-387,246,-386
			M 248,-381
			C 247,-384,248,-384,250,-385
			M -192,-282
			C -197,-278,-196,-272,-199,-268
			M -204,-261
			C -206,-257,-206,-252,-209,-249
			C -211,-245,-211,-240,-213,-236
			M -214,-225
			C -213,-223,-214,-221,-214,-219
			C -216,-221,-215,-223,-214,-224
			M -213,-166
			C -213,-163,-212,-161,-212,-159
			C -212,-159,-212,-158,-211,-158
			C -209,-157,-211,-154,-209,-152
			M -218,-207
			C -216,-202,-219,-197,-217,-192
			C -218,-189,-219,-185,-217,-182
			M -209,-146
			C -207,-143,-205,-140,-204,-137
			C -202,-133,-202,-126,-199,-126
			M 108,-192
			C 107,-187,107,-182,107,-177
			M 94,-134
			C 89,-129,88,-120,83,-117
			l -1,4
			M 105,-232
			C 104,-230,105,-228,106,-226
			M 61,-312
			C 61,-309,65,-308,65,-306
			C 65,-305,65,-305,66,-305
			C 67,-306,68,-304,68,-303
			C 68,-303,69,-302,69,-302
			C 70,-301,70,-300,71,-300
			M 2,-354
			C 4,-352,8,-348,11,-348
			C 11,-348,11,-348,12,-348
			C 12,-348,13,-348,14,-348
			C 14,-346,16,-347,17,-346
			M 358,-327
			C 358,-326,360,-326,360,-327
			C 361,-329,358,-329,358,-327
			M 346,-338
			C 345,-337,346,-335,347,-335
			C 349,-336,347,-340,346,-338
			M 364,-348
			C 364,-347,365,-347,366,-348
			C 367,-350,364,-350,364,-348
			M 353,-347
			C 353,-346,354,-347,354,-348
			C 354,-349,352,-349,353,-347
			M 385,-359
			C 386,-359,387,-362,385,-362
			C 384,-361,384,-360,385,-359
			M 420,-375
			C 420,-374,421,-373,422,-374
			C 424,-375,421,-376,420,-375
			M 402,-386
			C 401,-384,402,-384,403,-385
			C 404,-386,402,-387,402,-386
			M 394,-379
			C 396,-378,397,-381,395,-382
			C 394,-382,393,-380,394,-379
			M 394,-416
			C 394,-414,396,-415,396,-416
			C 395,-418,393,-417,394,-416
			M 392,-393
			C 392,-391,394,-390,394,-392
			C 395,-394,392,-395,392,-393
			M 380,-401
			C 380,-399,382,-400,382,-400
			C 384,-403,380,-404,380,-401
			M 402,-411
			C 404,-409,405,-412,403,-413
			C 402,-413,402,-412,402,-411
			M 368,-403
			C 368,-401,371,-402,371,-403
			C 371,-405,368,-405,368,-403
			M 370,-417
			C 369,-416,369,-414,370,-414
			C 372,-415,371,-417,370,-417
			M 351,-427
			C 351,-425,353,-426,353,-427
			C 353,-428,350,-428,351,-427
			M 346,-391
			C 346,-390,349,-392,348,-393
			C 347,-394,345,-393,346,-391
			M 336,-368
			C 337,-365,340,-368,338,-370
			C 337,-370,336,-369,336,-368
			M 315,-364
			C 316,-363,317,-365,317,-366
			C 315,-367,314,-366,315,-364
			M 328,-356
			C 328,-355,328,-354,329,-354
			C 331,-355,331,-357,328,-356
			M 323,-361
			C 322,-360,323,-358,324,-359
			C 326,-360,324,-362,323,-361
			M 337,-343
			C 338,-343,339,-344,339,-344
			C 339,-347,336,-345,337,-343
			M 342,-352
			C 341,-350,345,-350,345,-352
			C 344,-353,342,-353,342,-352
			M 348,-339
			C 350,-341,351,-343,353,-346
			M 360,-330
			C 361,-335,363,-340,364,-345
			M 355,-348
			C 358,-348,361,-348,363,-348
			M 349,-335
			C 352,-333,355,-331,357,-329
			M 339,-346
			C 340,-347,341,-348,341,-349
			M 346,-351
			C 347,-350,349,-349,351,-348
			M 331,-357
			C 333,-360,335,-363,336,-366
			M 325,-359
			l 2,1
			M 318,-364
			C 319,-363,320,-363,322,-362
			M 318,-366
			C 324,-367,329,-368,335,-368
			M 337,-366
			C 339,-362,341,-357,342,-354
			M 338,-372
			l 7,-18
			M 349,-394
			C 355,-397,361,-400,366,-402
			M 370,-406
			C 370,-409,370,-411,370,-413
			M 354,-426
			C 359,-423,364,-421,368,-418
			M 353,-424
			C 358,-418,363,-411,367,-405
			M 394,-383
			C 394,-385,394,-388,394,-390
			M 387,-363
			C 389,-367,392,-372,394,-377
			M 367,-350
			C 373,-352,378,-356,384,-359
			M 397,-382
			C 398,-383,399,-383,400,-384
			M 405,-384
			C 409,-381,414,-379,419,-376
			M 419,-374
			C 412,-376,405,-377,398,-379
			M 372,-403
			C 374,-402,377,-402,379,-402
			M 383,-400
			C 386,-398,389,-396,391,-395
			M 394,-395
			C 396,-400,399,-405,402,-409
			M 393,-414
			C 390,-411,387,-407,383,-404
			M 397,-415
			C 398,-414,400,-414,401,-413
			M 318,-138
			C 322,-140,326,-143,327,-146
			C 328,-147,328,-144,329,-145
			C 330,-148,331,-142,332,-146
			C 333,-146,335,-145,335,-146
			C 335,-147,335,-147,336,-147
			C 336,-145,337,-145,338,-146
			C 340,-144,341,-140,344,-138
			M 330,-146
			C 328,-147,328,-150,328,-152
			C 329,-154,332,-157,335,-156
			C 338,-154,338,-148,336,-146
			M 332,-134
			C 333,-134,333,-134,334,-134
			M 332,-136
			C 333,-136,333,-136,334,-136
			M 332,-137
			C 333,-137,333,-137,334,-137
			M 332,-138
			C 333,-139,334,-138,334,-138
			M 332,-140
			C 333,-140,334,-140,334,-140
			M 332,-141
			C 333,-141,334,-141,334,-141
			M 332,-143
			C 333,-143,334,-143,335,-143
			M 332,-144
			l 2,0
			M 330,-149
			C 329,-149,330,-148,330,-148
			C 330,-147,330,-149,330,-149
			l 0,0
			M 336,-149
			C 336,-149,336,-148,336,-148
			C 337,-148,337,-149,336,-149
			M 332,-150
			C 332,-147,334,-151,332,-150
			M 333,-146
			C 333,-149,335,-147,333,-146
			M 528,-250
			C 544,-256,557,-267,574,-270
			M 526,-250
			C 525,-250,525,-249,525,-249
			C 526,-248,526,-250,525,-250
			M 525,-251
			C 525,-251,525,-252,525,-252
			M 524,-251
			l 0,0
			M 523,-249
			C 523,-249,523,-249,523,-249
			M 524,-247
			C 524,-247,524,-247,524,-247
			M 527,-247
			C 527,-247,527,-247,527,-247
			M 528,-249
			C 528,-249,528,-249,528,-249
			M 480,-218
			C 480,-218,481,-217,481,-217
			C 482,-218,481,-219,480,-218
			M 483,-219
			C 485,-221,487,-222,490,-223
			C 500,-226,509,-231,519,-235
			M 529,-240
			C 531,-240,532,-241,533,-241
			M 537,-242
			C 539,-243,541,-244,542,-244
			M 480,-220
			l 0,-1
			M 478,-219
			C 478,-219,478,-219,478,-219
			M 478,-217
			l -1,0
			M 479,-215
			l -1,1
			M 481,-215
			C 481,-215,481,-214,481,-214
			M 483,-216
			C 483,-216,483,-216,483,-216
			M 579,-272
			l 4,-1
			M 555,-232
			C 543,-227,531,-222,519,-215
			C 525,-211,530,-207,535,-201
			M 558,-233
			C 559,-234,560,-234,560,-234
			M 564,-236
			C 565,-236,566,-236,566,-237
			M 571,-238
			C 571,-238,572,-239,573,-239
			M 536,-199
			C 535,-198,537,-198,537,-199
			C 537,-200,536,-200,536,-199
			M 537,-202
			C 537,-202,537,-202,537,-202
			M 539,-201
			C 539,-201,539,-201,539,-201
			M 539,-199
			C 540,-199,540,-199,540,-198
			M 538,-197
			C 538,-197,539,-197,539,-196
			M 536,-196
			C 536,-196,536,-196,536,-196
			M 534,-198
			C 534,-197,534,-197,534,-197
			M 534,-200
			C 534,-200,533,-200,533,-200
			M 519,-217
			C 520,-217,520,-217,520,-218
			M 519,-213
			C 519,-213,519,-213,520,-213
			M 516,-212
			C 517,-207,519,-218,518,-219
			C 515,-219,516,-214,516,-212
			M 516,-213
			C 517,-210,514,-199,516,-200
			C 517,-204,516,-208,517,-212
			M 516,-216
			C 517,-217,518,-217,518,-218
			M 516,-213
			C 516,-214,517,-214,517,-215
			M 493,-177
			C 496,-178,498,-179,501,-180
			C 501,-183,501,-185,501,-187
			C 500,-181,496,-177,493,-172
			M 501,-187
			C 502,-191,502,-195,502,-199
			M 489,-193
			C 493,-198,499,-199,505,-200
			C 509,-201,513,-202,517,-203
			C 517,-203,516,-202,516,-203
			C 516,-203,516,-203,516,-203
			M 497,-203
			C 500,-196,512,-202,508,-209
			C 504,-216,494,-210,497,-203
			M 167,-189
			l 0,4
			M 172,-189
			C 172,-188,172,-187,172,-185
			M 169,-188
			C 168,-189,168,-185,170,-186
			C 171,-186,170,-188,169,-188
			M 170,-187
			C 171,-187,171,-187,172,-187
			M 167,-187
			C 167,-187,168,-187,168,-187
			M 156,-198
			C 156,-198,157,-197,156,-197
			C 155,-195,154,-193,152,-192
			C 152,-192,151,-192,151,-193
			C 153,-194,154,-196,156,-198
			M 152,-196
			C 153,-197,154,-198,155,-199
			M 151,-197
			l 0,0
			C 152,-198,153,-199,154,-200
			M 150,-198
			l 3,-3
			M 150,-199
			C 150,-200,151,-201,152,-202
			M 153,-198
			C 154,-197,154,-197,154,-197
			l 0,0
			M 156,-195
			C 156,-195,156,-195,157,-195
			M 156,-193
			C 156,-194,157,-195,158,-196
			M 156,-192
			l 4,-4
			M 157,-191
			l 3,-4
			M 158,-190
			l 3,-3
			M 157,-198
			C 157,-198,157,-198,157,-198
			M 159,-198
			C 160,-199,158,-200,158,-201
			C 157,-201,157,-200,157,-200
			C 157,-199,158,-199,159,-198
			M 151,-194
			C 151,-194,151,-194,151,-194
			C 151,-195,150,-196,150,-196
			C 150,-196,150,-196,149,-196
			C 150,-195,151,-194,151,-194
			M 258,-380
			C 259,-380,259,-382,258,-382
			C 258,-381,258,-380,258,-380
			M 257,-382
			C 257,-382,257,-382,257,-382
			M 258,-379
			C 258,-379,258,-379,258,-379
			M -79,355
			C -79,359,-73,358,-71,358
			C -65,358,-58,360,-53,356
			C -52,354,-53,353,-55,352
			C -57,351,-58,349,-60,347
			C -66,345,-72,346,-77,349
			C -80,350,-79,353,-79,355
			M -63,351
			C -62,352,-59,352,-57,352
			C -58,349,-64,346,-63,351
			M -60,359
			C -60,359,-59,360,-59,361
			M -74,358
			C -74,359,-74,360,-75,360
			M -78,360
			l 20,1
			C -57,361,-56,361,-55,360
			M -79,356
			C -71,357,-63,357,-55,357
			M -65,351
			C -66,353,-69,351,-71,352
			C -71,352,-71,351,-71,351
			C -71,351,-71,350,-71,349
			C -70,348,-67,349,-66,349
			C -64,348,-65,350,-65,351
			M -67,346
			C -67,345,-67,341,-65,342
			C -65,343,-66,345,-65,346
			M -68,343
			C -76,343,-84,342,-91,343
			C -75,345,-58,346,-41,346
			C -47,345,-58,343,-64,343
			M -81,340
			C -82,340,-83,340,-85,340
			M -93,341
			C -94,342,-94,344,-92,344
			M -40,345
			C -39,345,-39,347,-40,347
			M -54,348
			C -53,348,-51,348,-50,348
			M -50,343
			C -51,343,-52,343,-53,342
			M -85,345
			C -83,346,-82,346,-81,346
			M -78,349
			C -86,351,-95,349,-102,352
			C -107,356,-113,359,-119,359
			C -119,359,-120,359,-119,360
			C -102,363,-106,350,-79,357
			M -118,359
			C -119,358,-120,356,-120,354
			C -119,356,-119,358,-118,359
			M -114,359
			C -115,357,-115,356,-115,353
			C -115,356,-114,357,-113,359
			M -117,358
			C -117,357,-118,355,-118,354
			C -117,355,-117,357,-116,359
			M -113,358
			C -113,356,-113,354,-112,353
			C -112,354,-112,356,-112,358
			M -80,355
			C -86,355,-94,353,-100,355
			M 480,168
			C 480,166,483,167,484,168
			C 484,171,480,175,480,179
			M 478,179
			C 478,178,481,180,483,179
			C 482,180,482,182,482,183
			C 477,181,471,186,471,192
			C 471,202,487,203,489,193
			C 491,189,489,184,484,183
			C 482,182,477,184,477,179
			M 473,190
			C 474,188,475,189,475,190
			C 475,189,476,187,478,187
			C 477,187,477,186,476,186
			C 474,185,474,189,473,190
			M 327,238
			C 323,237,323,243,325,245
			C 326,246,327,248,327,251
			C 322,249,323,253,323,256
			C 325,256,327,256,329,256
			C 329,254,329,253,329,251
			C 328,251,327,251,326,250
			M 325,256
			C 311,254,310,276,324,275
			C 335,276,339,258,328,256
			M 318,261
			C 317,262,317,263,317,264
			l 1,-1
			C 318,264,318,264,318,265
			C 318,263,320,262,322,262
			C 319,262,321,257,318,261
			M -55,216
			C -60,217,-60,222,-57,225
			C -56,227,-56,230,-57,232
			C -57,232,-58,232,-58,232
			C -59,233,-59,235,-59,237
			C -58,237,-56,237,-55,237
			C -56,235,-54,231,-57,232
			l 0,0
			M -68,251
			C -65,260,-49,258,-48,249
			C -46,231,-71,234,-68,251
			M -64,242
			C -65,243,-65,244,-66,245
			C -65,244,-64,245,-64,246
			C -64,244,-62,242,-60,241
			C -62,242,-62,239,-64,242
			M 223,-34
			l 0,2
			C 218,-45,221,-54,212,-36
			C 214,-40,219,-42,222,-45
			C 224,-42,225,-37,227,-34
			M 212,-37
			C 211,-41,212,-48,214,-52
			M 216,-64
			C 210,-61,214,-51,220,-50
			C 232,-52,228,-71,216,-64
			M 225,-45
			C 218,-45,217,-46,214,-52
			C 218,-48,218,-47,225,-46
			C 225,-46,225,-45,225,-45
			M 237,-40
			C 238,-38,241,-36,243,-34
			C 245,-42,243,-40,238,-45
			C 238,-44,238,-42,237,-40
			M 238,-46
			C 240,-45,241,-46,242,-45
			C 243,-43,246,-42,247,-41
			C 247,-39,247,-37,246,-35
			C 246,-35,246,-35,245,-35
			C 245,-35,244,-35,243,-34
			C 243,-35,243,-35,243,-35
			M 244,-40
			C 245,-41,247,-40,248,-41
			M 238,-41
			C 238,-37,241,-42,240,-43
			C 239,-44,239,-41,238,-41
			M 241,-41
			l 0,0
			C 242,-40,241,-41,241,-41
			M 241,-39
			C 241,-39,241,-39,241,-39
			M 245,-42
			l 1,-16
			M 236,-46
			l -1,-1
			M 236,-45
			C 235,-45,234,-45,234,-45
			M 235,-42
			C 235,-42,234,-42,233,-42
			M 235,-39
			C 235,-39,234,-39,234,-38
			M 237,-38
			l 0,0
			C 237,-37,237,-37,237,-37
			M 238,-48
			C 238,-48,238,-48,238,-49
			M -117,-81
			C -115,-81,-114,-78,-116,-77
			C -114,-77,-114,-76,-116,-76
			C -116,-77,-118,-75,-119,-77
			C -122,-74,-121,-80,-119,-77
			C -121,-80,-116,-85,-113,-83
			C -113,-83,-113,-84,-113,-84
			C -117,-88,-113,-91,-112,-85
			C -112,-84,-112,-84,-112,-84
			C -110,-85,-108,-83,-108,-81
			C -108,-80,-109,-79,-110,-79
			C -111,-79,-112,-79,-112,-78
			C -112,-78,-113,-77,-112,-77
			C -112,-75,-113,-76,-113,-77
			C -114,-77,-114,-77,-114,-77
			l 0,0
			M -111,-85
			C -113,-90,-108,-90,-111,-85
		" />
	</g>
</svg>
